#N canvas -8 -8 1920 997 10;
#N canvas 1912 -8 1920 997 ks 1;
#X obj 879 315 inlet;
#X obj 976 315 inlet;
#X obj 976 334 expr 1000/$f1;
#X obj 976 365 t f f;
#X obj 911 380 del;
#X obj 879 335 t b b;
#X obj 879 451 vline~;
#X obj 861 532 *~;
#X obj 860 579 +~;
#X obj 1009 495 fexpr~ 0.5*$x1[0]+0.5*$x1[-1];
#X obj 959 661 outlet~;
#X obj 1643 129 block~ 1;
#X floatatom 1082 547 8 0 0 0 - - -, f 8;
#X obj 1082 532 expr 1 - ($f1/1000);
#X obj 501 101 cnv 15 458 98 empty empty empty 20 12 0 14 -204786 -66577
0;
#X obj 545 157 knob 32 32 10 1 0 0 empty empty empty -20 -11 0 8 4.03399e+007
4.03399e+007 4.03399e+007 1722 1;
#X floatatom 1056 215 5 0 0 0 - - -, f 5;
#X text 510 106 Karplus-Strong;
#X text 538 132 Reverb;
#X obj 578 185 bng 15 250 50 0 empty empty empty 17 7 0 10 -4034 -1
-1;
#X msg 572 67 5;
#X obj 572 40 loadbang;
#X obj 858 681 delwrite~ \$0-ksbuffer 2000;
#X obj 1008 412 delread~ \$0-ksbuffer;
#X msg 879 404 1;
#X msg 911 404 0;
#X obj 1010 564 *~ 1;
#X obj 715 157 knob 32 32 100 10000 1 0 empty empty empty -20 -11 0
8 4.03399e+007 4.03399e+007 4.03399e+007 2290 1;
#X text 698 132 Frequency;
#X obj 805 157 knob 32 32 1 10 1 0 empty empty empty -20 -11 0 8 4.03399e+007
4.03399e+007 4.03399e+007 0 1;
#X obj 748 185 bng 15 250 50 0 empty empty empty 17 7 0 10 -4034 -1
-1;
#X obj 838 185 bng 15 250 50 0 empty empty empty 17 7 0 10 -4034 -1
-1;
#X obj 790 658 vu 15 120 empty empty -1 -8 0 10 -66577 -1 1 0;
#X obj 789 593 env~;
#X obj 789 625 - 100;
#X obj 1343 758 spigot;
#X obj 861 611 *~;
#X msg 1451 797 1;
#X obj 1343 713 t b f;
#X obj 669 127 bng 15 250 50 0 empty empty empty 17 7 0 10 -258113
-1 -1;
#X obj 659 518 +~;
#X obj 715 235 s KP-freq;
#X obj 805 233 s KP-harsh;
#N canvas 803 317 450 431 lever 0;
#X obj 131 119 f;
#X msg 67 104 0;
#X msg 300 104 1;
#X obj 131 151 expr if($f1 == 1 \, 1 \, 0) \; if($f1 == 0 \, 1 \, 0)
;
#X obj 67 218 spigot;
#X obj 300 217 spigot;
#X obj 306 182 t b f;
#X floatatom 166 138 5 0 0 0 - - -, f 5;
#X floatatom 140 203 5 0 0 0 - - -, f 5;
#X floatatom 240 204 5 0 0 0 - - -, f 5;
#X obj 131 46 loadbang;
#X msg 131 76 0;
#X msg 67 253 1;
#X obj 67 177 t b f;
#X msg 300 253 1;
#X obj 216 56 inlet;
#X obj 67 309 outlet;
#X obj 300 309 outlet;
#X connect 0 0 3 0;
#X connect 0 0 7 0;
#X connect 1 0 0 1;
#X connect 2 0 0 1;
#X connect 3 0 8 0;
#X connect 3 0 13 0;
#X connect 3 1 6 0;
#X connect 3 1 9 0;
#X connect 4 0 1 0;
#X connect 4 0 12 0;
#X connect 5 0 2 0;
#X connect 5 0 14 0;
#X connect 6 0 5 0;
#X connect 6 1 5 1;
#X connect 10 0 11 0;
#X connect 11 0 0 0;
#X connect 12 0 16 0;
#X connect 13 0 4 0;
#X connect 13 1 4 1;
#X connect 14 0 17 0;
#X connect 15 0 0 0;
#X restore 359 257 pd lever;
#X obj 405 401 cnv 15 300 100 empty empty Normal_Noise_(KP_Vanilla)
20 12 0 14 -204786 -66577 0;
#X obj 451 463 expr abs($f1 - 1);
#X obj 577 478 *~;
#X obj 596 438 noise~;
#X obj 1343 662 expr if($f1 < -70 \, 1 \, 0) \; if($f1 > -70 \, 1 \,
0);
#X floatatom 1413 709 5 0 0 0 - - -, f 5;
#X obj 1510 717 t b f;
#X obj 1510 756 spigot;
#X obj 63 337 cnv 15 300 200 empty empty Custom_Noise 20 12 0 14 -203904
-66577 0;
#X obj 95 416 noise~;
#X obj 176 504 *~;
#X obj 225 489 expr abs($f1 - 1);
#X obj 95 451 bp~ 200 10;
#X obj 128 359 r KP-freq;
#X obj 162 399 r KP-harsh;
#X floatatom 673 220 5 0 0 0 - - -, f 5;
#X msg 728 74 3000;
#X obj 241 682 vu 15 120 empty empty -1 -8 0 10 -66577 -1 1 0;
#X obj 240 637 env~;
#X obj 240 657 - 100;
#X floatatom 1058 355 5 0 0 0 - - -, f 5;
#X floatatom 1566 706 5 0 0 0 - - -, f 5;
#X msg 811 77 0;
#X text 788 132 Softmess;
#X obj 241 589 *~;
#X obj 895 157 knob 32 32 0.1 10 1 0 empty empty empty 0 -8 0 8 4.03401e+007
4.03401e+007 4.03401e+007 2017 1;
#X text 888 132 Volume;
#X obj 642 101 cnv 15 15 98 empty empty empty 20 12 0 14 -13381 -66577
0;
#X obj 928 185 bng 15 250 50 0 empty empty empty 17 7 0 10 -4034 -1
-1;
#X obj 669 107 cnv 15 15 15 empty KP-On empty 20 12 0 14 -260818 -262144
0;
#X obj 495 287 pack 0 0 0;
#X msg 495 302 \; KP-On color \$1 \$2 \$3;
#X msg 495 272 14;
#X msg 544 272 4;
#X obj 895 233 s KP-volume;
#X obj 259 556 r KP-volume;
#X obj 545 220 s KP-reverb;
#X obj 1241 517 r KP-reverb;
#X obj 1331 792 del 500;
#X msg 1259 787 0.1;
#X msg 906 77 2;
#X connect 0 0 5 0;
#X connect 1 0 2 0;
#X connect 2 0 3 0;
#X connect 2 0 64 0;
#X connect 3 0 4 1;
#X connect 3 1 23 0;
#X connect 4 0 25 0;
#X connect 5 0 24 0;
#X connect 5 1 4 0;
#X connect 6 0 7 1;
#X connect 7 0 8 0;
#X connect 8 0 33 0;
#X connect 8 0 36 0;
#X connect 9 0 26 0;
#X connect 12 0 26 1;
#X connect 13 0 12 0;
#X connect 15 0 16 0;
#X connect 15 0 80 0;
#X connect 19 0 20 0;
#X connect 20 0 15 0;
#X connect 21 0 20 0;
#X connect 21 0 60 0;
#X connect 21 0 66 0;
#X connect 21 0 84 0;
#X connect 23 0 9 0;
#X connect 24 0 6 0;
#X connect 25 0 6 0;
#X connect 26 0 8 1;
#X connect 27 0 41 0;
#X connect 27 0 59 0;
#X connect 29 0 42 0;
#X connect 30 0 60 0;
#X connect 31 0 66 0;
#X connect 33 0 34 0;
#X connect 34 0 32 0;
#X connect 34 0 48 0;
#X connect 35 0 83 0;
#X connect 35 0 82 0;
#X connect 36 0 10 0;
#X connect 36 0 22 0;
#X connect 37 0 36 1;
#X connect 38 0 35 0;
#X connect 38 1 35 1;
#X connect 39 0 43 0;
#X connect 40 0 7 0;
#X connect 43 0 45 0;
#X connect 43 0 54 1;
#X connect 43 0 76 0;
#X connect 43 1 46 0;
#X connect 43 1 55 0;
#X connect 43 1 77 0;
#X connect 45 0 46 0;
#X connect 46 0 40 1;
#X connect 47 0 46 1;
#X connect 48 0 38 0;
#X connect 48 0 49 0;
#X connect 48 1 50 0;
#X connect 48 1 65 0;
#X connect 50 0 51 0;
#X connect 50 1 51 1;
#X connect 51 0 37 0;
#X connect 53 0 56 0;
#X connect 54 0 68 0;
#X connect 55 0 54 1;
#X connect 56 0 54 0;
#X connect 57 0 56 1;
#X connect 58 0 56 2;
#X connect 60 0 27 0;
#X connect 62 0 63 0;
#X connect 63 0 61 0;
#X connect 66 0 29 0;
#X connect 68 0 40 0;
#X connect 68 0 62 0;
#X connect 69 0 78 0;
#X connect 72 0 84 0;
#X connect 74 0 75 0;
#X connect 76 0 74 0;
#X connect 77 0 74 0;
#X connect 79 0 68 1;
#X connect 81 0 13 0;
#X connect 82 0 37 0;
#X connect 83 0 36 1;
#X connect 84 0 69 0;
#X coords 0 -1 1 1 460 100 2 500 100;
#X restore 90 352 pd ks;
#N canvas 1912 -8 1920 997 master 0;
#X obj 536 580 inlet~;
#X obj 301 301 cnv 15 798 198 empty empty empty 20 12 0 14 -261234
-66577 0;
#X obj 463 443 knob 32 32 0.01 1.01 1 0 empty empty empty 0 -8 0 8
4.03399e+007 4.03399e+007 4.03399e+007 2943 1;
#X obj 301 301 cnv 15 80 20 empty empty Master 20 12 0 14 -261234 -66577
0;
#X obj 542 678 dac~;
#X obj 462 565 - 0.01;
#X obj 519 640 *~;
#X obj 607 580 inlet~;
#X obj 590 640 *~;
#X floatatom 450 614 5 0 0 0 - - -, f 5;
#X obj 531 378 loadbang;
#X msg 531 426 0.8;
#X obj 499 463 bng 15 250 50 0 empty empty empty 17 7 0 10 -4034 -1
-1;
#X obj 336 190 r taxa_de_amostragem;
#X obj 336 213 block~;
#X obj 322 656 env~;
#X obj 322 689 - 100;
#X obj 323 360 vu 15 120 empty empty -1 -8 0 10 -66577 -1 1 0;
#X obj 506 187 r tamanho_do_bloco;
#X obj 506 210 block~;
#N canvas 0 50 450 250 (subpatch) 0;
#X array sinalL 64 float 5;
#A 0 0 0 0 0 0 0 0 0 0 0 0 0 0 0 0 0 0 0 0 0 0 0 0 0 0 0 0 0 0 0 0
0 0 0 0 0 0 0 0 0 0 0 0 0 0 0 0 0 0 0 0 0 0 0 0 0 0 0 0 0 0 0 0 0;
#X coords 0 1 64 -1 200 140 1 0 0;
#X restore 634 334 graph;
#X obj 531 769 metro 10;
#X obj 531 744 loadbang;
#X msg 506 235 sinal resize \$1 \;;
#X text 455 421 Volume;
#X obj 681 768 metro 10;
#X obj 681 743 loadbang;
#X obj 531 793 tabwrite~ sinalL;
#X obj 681 792 tabwrite~ sinalR;
#N canvas 0 50 450 250 (subpatch) 0;
#X array sinalR 64 float 5;
#A 0 0 0 0 0 0 0 0 0 0 0 0 0 0 0 0 0 0 0 0 0 0 0 0 0 0 0 0 0 0 0 0
0 0 0 0 0 0 0 0 0 0 0 0 0 0 0 0 0 0 0 0 0 0 0 0 0 0 0 0 0 0 0 0 0;
#X coords 0 1 64 -1 200 140 1 0 0;
#X restore 864 334 graph;
#X obj 393 656 env~;
#X obj 393 689 - 100;
#X obj 393 360 vu 15 120 empty empty -1 -8 0 10 -66577 -1 1 0;
#X connect 0 0 6 1;
#X connect 2 0 5 0;
#X connect 5 0 6 0;
#X connect 5 0 8 0;
#X connect 5 0 9 0;
#X connect 6 0 4 0;
#X connect 6 0 15 0;
#X connect 6 0 27 0;
#X connect 7 0 8 1;
#X connect 8 0 4 1;
#X connect 8 0 30 0;
#X connect 8 0 28 0;
#X connect 10 0 11 0;
#X connect 11 0 2 0;
#X connect 12 0 11 0;
#X connect 13 0 14 0;
#X connect 15 0 16 0;
#X connect 16 0 17 0;
#X connect 18 0 19 0;
#X connect 18 0 23 0;
#X connect 21 0 27 0;
#X connect 22 0 21 0;
#X connect 25 0 28 0;
#X connect 26 0 25 0;
#X connect 30 0 31 0;
#X connect 31 0 32 0;
#X coords 0 -1 1 1 800 200 2 300 300;
#X restore 90 671 pd master;
#N canvas 676 50 681 676 mixer 0;
#X obj 464 274 inlet~;
#X obj 446 300 *~;
#X obj 446 186 vsl 15 100 0 1 0 0 empty empty empty 0 -9 0 10 -262144
-1 -1 0 1;
#X obj 384 274 inlet~;
#X obj 366 300 *~;
#X obj 366 186 vsl 15 100 0 1 0 0 empty empty empty 0 -9 0 10 -262144
-1 -1 0 1;
#X obj 101 101 cnv 15 126 218 empty empty empty 20 12 0 14 -191407
-66577 0;
#X obj 114 112 vsl 20 200 0.01 1 1 0 empty empty empty 0 -9 0 10 -228856
-1 -1 0 1;
#X obj 146 280 knob 32 32 0 1 0 0 empty empty empty 0 -8 0 8 4.03399e+007
4.03399e+007 4.03399e+007 0 1;
#X obj 182 300 bng 15 250 50 0 empty empty empty 17 7 0 10 -4034 -1
-1;
#X obj 349 330 *~;
#X obj 348 353 outlet~;
#X obj 428 352 outlet~;
#X obj 429 330 *~;
#X obj 243 315 - 0.01;
#X obj 446 169 expr 1 - $f1;
#X msg 182 263 0.5;
#X floatatom 243 335 5 0 0 0 - - -, f 5;
#X connect 0 0 1 1;
#X connect 1 0 13 1;
#X connect 2 0 1 0;
#X connect 2 0 15 0;
#X connect 3 0 4 1;
#X connect 4 0 10 1;
#X connect 5 0 4 0;
#X connect 7 0 14 0;
#X connect 8 0 2 0;
#X connect 9 0 16 0;
#X connect 10 0 11 0;
#X connect 13 0 12 0;
#X connect 14 0 10 0;
#X connect 14 0 13 0;
#X connect 14 0 17 0;
#X connect 15 0 5 0;
#X connect 16 0 8 0;
#X coords 0 -1 1 1 128 220 1 100 100;
#X restore 1749 39 pd mixer;
#N canvas 0 50 450 300 master 0;
#X obj 237 145 inlet~;
#X obj 51 51 cnv 15 98 98 empty empty empty 20 12 0 14 -261234 -66577
0;
#X obj 85 95 knob 32 32 0.01 1.01 1 0 empty empty empty 0 -8 0 8 4.03399e+007
4.03399e+007 4.03399e+007 0 1;
#X obj 55 54 cnv 15 80 20 empty empty Master 20 12 0 14 -261234 -66577
0;
#X obj 243 243 dac~;
#X obj 163 130 - 0.01;
#X obj 220 205 *~;
#X obj 308 145 inlet~;
#X obj 291 205 *~;
#X floatatom 141 179 5 0 0 0 - - -, f 5;
#X connect 0 0 6 1;
#X connect 2 0 5 0;
#X connect 5 0 6 0;
#X connect 5 0 8 0;
#X connect 5 0 9 0;
#X connect 6 0 4 0;
#X connect 7 0 8 1;
#X connect 8 0 4 1;
#X coords 0 -1 1 1 100 100 2 50 50;
#X restore 1764 320 pd master;
#N canvas 195 52 606 424 mixer 0;
#X obj 464 274 inlet~;
#X obj 446 300 *~;
#X obj 446 186 vsl 15 100 0 1 0 0 empty empty empty 0 -9 0 10 -262144
-1 -1 4950 1;
#X obj 384 274 inlet~;
#X obj 366 300 *~;
#X obj 366 186 vsl 15 100 0 1 0 0 empty empty empty 0 -9 0 10 -262144
-1 -1 4950 1;
#X obj 101 101 cnv 15 126 218 empty empty empty 20 12 0 14 -191407
-66577 0;
#X obj 114 112 vsl 20 200 0.01 1 1 0 empty empty empty 0 -9 0 10 -228856
-1 -1 16300 1;
#X obj 146 280 knob 32 32 0 1 0 0 empty empty empty 0 -8 0 8 4.03399e+007
4.03399e+007 4.03399e+007 1550 1;
#X obj 182 300 bng 15 250 50 0 empty empty empty 17 7 0 10 -4034 -1
-1;
#X obj 349 330 *~;
#X obj 348 353 outlet~;
#X obj 428 352 outlet~;
#X obj 429 330 *~;
#X obj 243 315 - 0.01;
#X obj 446 169 expr 1 - $f1;
#X msg 182 263 0.5;
#X floatatom 243 335 5 0 0 0 - - -, f 5;
#X obj 182 236 loadbang;
#X msg 182 95 0.8;
#X obj 278 105 r taxa_de_amostragem;
#X obj 278 128 block~;
#X connect 0 0 1 1;
#X connect 1 0 13 1;
#X connect 2 0 1 0;
#X connect 2 0 15 0;
#X connect 3 0 4 1;
#X connect 4 0 10 1;
#X connect 5 0 4 0;
#X connect 7 0 14 0;
#X connect 8 0 2 0;
#X connect 9 0 16 0;
#X connect 10 0 11 0;
#X connect 13 0 12 0;
#X connect 14 0 10 0;
#X connect 14 0 13 0;
#X connect 14 0 17 0;
#X connect 15 0 5 0;
#X connect 16 0 8 0;
#X connect 18 0 16 0;
#X connect 18 0 19 0;
#X connect 19 0 7 0;
#X connect 20 0 21 0;
#X coords 0 -1 1 1 128 220 1 100 100;
#X restore 90 452 pd mixer v;
#N canvas 354 217 681 367 settings 0;
#X obj 163 40 loadbang;
#X msg 163 60 4;
#X obj 101 101 cnv 15 298 148 empty empty empty 20 12 0 14 -262144
-66577 0;
#X obj 163 290 s tamanho_do_bloco;
#X obj 423 268 s taxa_de_amostragem;
#X obj 163 152 vradio 15 1 0 6 empty empty Tamanho_do_Bloco -47 -8
0 10 -228856 -1 -1 4;
#X text 180 152 64;
#X text 180 168 128;
#X text 180 183 256;
#X text 180 198 512;
#X text 180 213 1024;
#X text 180 228 2048;
#X obj 163 268 expr pow(2 \, $f1) * 64;
#X obj 101 111 cnv 15 150 20 empty empty Configurações 20 12 0 14
-262144 -66577 0;
#X obj 303 55 samplerate~;
#X obj 303 152 vradio 15 1 0 6 empty empty Taxa_de_Amostragem -47 -8
0 10 -228856 -1 -1 4;
#X text 320 213 44100;
#X text 320 228 88200;
#X text 320 198 22050;
#X text 320 183 11025;
#X text 320 168 5512.5;
#X text 320 152 2756.25;
#X obj 303 100 expr log($f1/2756.25) / log(2);
#X obj 303 115 expr if ($f1 > 0 \, floor($f1) \, 4);
#X obj 423 242 expr pow(2 \, $f1) * 2756.25;
#X connect 0 0 1 0;
#X connect 0 0 14 0;
#X connect 1 0 5 0;
#X connect 5 0 12 0;
#X connect 12 0 3 0;
#X connect 14 0 22 0;
#X connect 15 0 24 0;
#X connect 22 0 23 0;
#X connect 23 0 15 0;
#X connect 24 0 4 0;
#X coords 0 -1 1 1 300 150 2 100 100;
#X restore 1157 53 pd settings;
#N canvas 0 50 1920 997 control 0;
#X obj 465 219 hradio 15 1 0 2 empty empty empty 0 -8 0 10 -262144
-1 -1 0;
#X obj 301 215 cnv 15 1 1 empty empty MIDI_Controller 20 12 0 14 -262144
-66577 0;
#X obj 496 215 cnv 15 1 1 empty empty MIDI_File 20 12 0 14 -262144
-66577 0;
#X obj 706 552 expr if($f1 == 0 \, 1 \, 0) \; if($f1 == 1 \, 1 \, 0)
;
#X obj 611 626 spigot;
#X obj 879 626 spigot;
#X obj 742 707 outlet;
#X obj 802 707 outlet;
#X obj 667 626 spigot;
#X obj 932 627 spigot;
#N canvas 0 50 1366 685 MIvDI_controllerv 0;
#X floatatom 674 170 0 0 0 0 - - -;
#X floatatom 638 170 0 0 0 0 - - -;
#X obj 602 145 notein;
#X floatatom 602 170 0 0 0 0 - - -;
#X obj 602 185 expr if($f2 > 0 \, $f1 \, 0);
#X floatatom 602 205 5 0 0 0 - - -, f 5;
#X obj 602 301 spigot;
#X obj 602 259 t b f;
#X msg 602 280 bang;
#X obj 602 322 s offSignal;
#X obj 602 233 expr if($f1 == 0 \, 1 \, 0) \; if($f1 > 0 \, $f1 \,
0);
#X obj 700 280 spigot;
#X obj 700 260 t f f;
#X obj 700 300 s onSignal;
#X obj 528 307 loadbang;
#X obj 11 11 cnv 15 578 98 empty empty empty 20 12 0 14 -261021 -66577
0;
#X obj 30 56 vsl 15 40 0 127 0 0 empty key36 empty 0 -9 0 10 -262144
-262144 -262144 0 1;
#X obj 45 56 vsl 15 40 0 127 0 0 empty key38 empty 0 -9 0 10 -262144
-262144 -262144 0 1;
#X obj 60 56 vsl 15 40 0 127 0 0 empty key40 empty 0 -9 0 10 -262144
-262144 -262144 0 1;
#X obj 75 56 vsl 15 40 0 127 0 0 empty key41 empty 0 -9 0 10 -262144
-262144 -262144 0 1;
#X obj 40 56 vsl 11 30 0 127 0 0 empty key37 empty 0 -9 0 10 -66577
-66577 -66577 0 1;
#X obj 55 56 vsl 11 30 0 127 0 0 empty key39 empty 0 -9 0 10 -66577
-66577 -66577 0 1;
#X obj 90 56 vsl 15 40 0 127 0 0 empty key43 empty 0 -9 0 10 -262144
-262144 -262144 0 1;
#X obj 105 56 vsl 15 40 0 127 0 0 empty key45 empty 0 -9 0 10 -262144
-262144 -262144 0 1;
#X obj 120 56 vsl 15 40 0 127 0 0 empty key47 empty 0 -9 0 10 -262144
-262144 -262144 0 1;
#X obj 85 56 vsl 11 30 0 127 0 0 empty key42 empty 0 -9 0 10 -66577
-66577 -66577 0 1;
#X obj 100 56 vsl 11 30 0 127 0 0 empty key44 empty 0 -9 0 10 -66577
-66577 -66577 0 1;
#X obj 115 56 vsl 11 30 0 127 0 0 empty key46 empty 0 -9 0 10 -66577
-66577 -66577 0 1;
#X obj 135 56 vsl 15 40 0 127 0 0 empty key48 empty 0 -9 0 10 -262144
-262144 -262144 0 1;
#X obj 150 56 vsl 15 40 0 127 0 0 empty key50 empty 0 -9 0 10 -262144
-262144 -262144 0 1;
#X obj 165 56 vsl 15 40 0 127 0 0 empty key52 empty 0 -9 0 10 -262144
-262144 -262144 0 1;
#X obj 180 56 vsl 15 40 0 127 0 0 empty key53 empty 0 -9 0 10 -262144
-262144 -262144 0 1;
#X obj 145 56 vsl 11 30 0 127 0 0 empty key49 empty 0 -9 0 10 -66577
-66577 -66577 0 1;
#X obj 160 56 vsl 11 30 0 127 0 0 empty key51 empty 0 -9 0 10 -66577
-66577 -66577 0 1;
#X obj 195 56 vsl 15 40 0 127 0 0 empty key55 empty 0 -9 0 10 -262144
-262144 -262144 0 1;
#X obj 210 56 vsl 15 40 0 127 0 0 empty key57 empty 0 -9 0 10 -262144
-262144 -262144 0 1;
#X obj 225 56 vsl 15 40 0 127 0 0 empty key59 empty 0 -9 0 10 -262144
-262144 -262144 0 1;
#X obj 190 56 vsl 11 30 0 127 0 0 empty key54 empty 0 -9 0 10 -66577
-66577 -66577 0 1;
#X obj 205 56 vsl 11 30 0 127 0 0 empty key56 empty 0 -9 0 10 -66577
-66577 -66577 0 1;
#X obj 220 56 vsl 11 30 0 127 0 0 empty key58 empty 0 -9 0 10 -66577
-66577 -66577 0 1;
#X obj 240 56 vsl 15 40 0 127 0 0 empty key60 empty 0 -9 0 10 -262144
-262144 -262144 0 1;
#X obj 255 56 vsl 15 40 0 127 0 0 empty key62 empty 0 -9 0 10 -262144
-262144 -262144 0 1;
#X obj 270 56 vsl 15 40 0 127 0 0 empty key64 empty 0 -9 0 10 -262144
-262144 -262144 0 1;
#X obj 285 56 vsl 15 40 0 127 0 0 empty key65 empty 0 -9 0 10 -262144
-262144 -262144 0 1;
#X obj 250 56 vsl 11 30 0 127 0 0 empty key61 empty 0 -9 0 10 -66577
-66577 -66577 0 1;
#X obj 265 56 vsl 11 30 0 127 0 0 empty key63 empty 0 -9 0 10 -66577
-66577 -66577 0 1;
#X obj 300 56 vsl 15 40 0 127 0 0 empty key67 empty 0 -9 0 10 -262144
-262144 -262144 0 1;
#X obj 315 56 vsl 15 40 0 127 0 0 empty key69 empty 0 -9 0 10 -262144
-262144 -262144 0 1;
#X obj 330 56 vsl 15 40 0 127 0 0 empty key71 empty 0 -9 0 10 -262144
-262144 -262144 0 1;
#X obj 295 56 vsl 11 30 0 127 0 0 empty key66 empty 0 -9 0 10 -66577
-66577 -66577 0 1;
#X obj 310 56 vsl 11 30 0 127 0 0 empty key68 empty 0 -9 0 10 -66577
-66577 -66577 0 1;
#X obj 325 56 vsl 11 30 0 127 0 0 empty key70 empty 0 -9 0 10 -66577
-66577 -66577 0 1;
#X obj 345 56 vsl 15 40 0 127 0 0 empty key72 empty 0 -9 0 10 -262144
-262144 -262144 0 1;
#X obj 360 56 vsl 15 40 0 127 0 0 empty key74 empty 0 -9 0 10 -262144
-262144 -262144 0 1;
#X obj 375 56 vsl 15 40 0 127 0 0 empty key76 empty 0 -9 0 10 -262144
-262144 -262144 0 1;
#X obj 390 56 vsl 15 40 0 127 0 0 empty key77 empty 0 -9 0 10 -262144
-262144 -262144 0 1;
#X obj 355 56 vsl 11 30 0 127 0 0 empty key73 empty 0 -9 0 10 -66577
-66577 -66577 0 1;
#X obj 370 56 vsl 11 30 0 127 0 0 empty key75 empty 0 -9 0 10 -66577
-66577 -66577 0 1;
#X obj 405 56 vsl 15 40 0 127 0 0 empty key79 empty 0 -9 0 10 -262144
-262144 -262144 0 1;
#X obj 420 56 vsl 15 40 0 127 0 0 empty key81 empty 0 -9 0 10 -262144
-262144 -262144 0 1;
#X obj 435 56 vsl 15 40 0 127 0 0 empty key83 empty 0 -9 0 10 -262144
-262144 -262144 0 1;
#X obj 400 56 vsl 11 30 0 127 0 0 empty key78 empty 0 -9 0 10 -66577
-66577 -66577 0 1;
#X obj 415 56 vsl 11 30 0 127 0 0 empty key80 empty 0 -9 0 10 -66577
-66577 -66577 0 1;
#X obj 430 56 vsl 11 30 0 127 0 0 empty key82 empty 0 -9 0 10 -66577
-66577 -66577 0 1;
#X obj 44 23 knob 20 20 0 127 0 0 empty empty empty 0 -8 0 8 4.03399e+007
4.03399e+007 4.03399e+007 0 1;
#X obj 84 23 knob 20 20 0 127 0 0 empty empty empty 0 -8 0 8 4.03399e+007
4.03399e+007 4.03399e+007 0 1;
#X obj 124 23 knob 20 20 0 127 0 0 empty empty empty 0 -8 0 8 4.03399e+007
4.03399e+007 4.03399e+007 0 1;
#X obj 164 23 knob 20 20 0 127 0 0 empty empty empty 0 -8 0 8 4.03399e+007
4.03399e+007 4.03399e+007 0 1;
#X obj 204 23 knob 20 20 0 127 0 0 empty empty empty 0 -8 0 8 4.03399e+007
4.03399e+007 4.03399e+007 0 1;
#X obj 244 23 knob 20 20 0 127 0 0 empty empty empty 0 -8 0 8 4.03399e+007
4.03399e+007 4.03399e+007 0 1;
#X obj 284 23 knob 20 20 0 127 0 0 empty empty empty 0 -8 0 8 4.03399e+007
4.03399e+007 4.03399e+007 0 1;
#X obj 324 23 knob 20 20 0 127 0 0 empty empty empty 0 -8 0 8 4.03399e+007
4.03399e+007 4.03399e+007 0 1;
#X obj 450 56 vsl 15 40 0 127 0 0 empty key84 empty 0 -9 0 10 -262144
-262144 -262144 0 1;
#X obj 465 56 vsl 15 40 0 127 0 0 empty key86 empty 0 -9 0 10 -262144
-262144 -262144 0 1;
#X obj 480 56 vsl 15 40 0 127 0 0 empty key88 empty 0 -9 0 10 -262144
-262144 -262144 0 1;
#X obj 495 56 vsl 15 40 0 127 0 0 empty key89 empty 0 -9 0 10 -262144
-262144 -262144 0 1;
#X obj 460 56 vsl 11 30 0 127 0 0 empty key85 empty 0 -9 0 10 -66577
-66577 -66577 0 1;
#X obj 475 56 vsl 11 30 0 127 0 0 empty key87 empty 0 -9 0 10 -66577
-66577 -66577 0 1;
#X obj 510 56 vsl 15 40 0 127 0 0 empty key91 empty 0 -9 0 10 -262144
-262144 -262144 0 1;
#X obj 525 56 vsl 15 40 0 127 0 0 empty key93 empty 0 -9 0 10 -262144
-262144 -262144 0 1;
#X obj 540 56 vsl 15 40 0 127 0 0 empty key95 empty 0 -9 0 10 -262144
-262144 -262144 0 1;
#X obj 505 56 vsl 11 30 0 127 0 0 empty key90 empty 0 -9 0 10 -66577
-66577 -66577 0 1;
#X obj 520 56 vsl 11 30 0 127 0 0 empty key92 empty 0 -9 0 10 -66577
-66577 -66577 0 1;
#X obj 535 56 vsl 11 30 0 127 0 0 empty key94 empty 0 -9 0 10 -66577
-66577 -66577 0 1;
#X obj 555 56 vsl 15 40 0 127 0 0 empty key96 empty 0 -9 0 10 -262144
-262144 -262144 0 1;
#N canvas 0 50 1366 685 keyboard 0;
#X obj 70 21 r onSignal;
#X obj 70 43 t f b;
#X msg 263 58 36;
#X obj 70 92 expr if($f1 != $f2 \, $f1 \, 0) \; if($f1 != $f2 \, $f2
+1 \, 0) \; if($f1 == $f2 \, $f1 \, 0);
#X obj 270 107 spigot;
#X obj 270 92 t b f;
#X obj 316 107 r pressedTheme;
#X obj 270 122 f;
#X obj 295 122 pack 0 0 0;
#X obj 428 91 r offSignal;
#X obj 453 121 pack 0 0 0;
#X obj 428 121 f;
#X obj 452 106 r whiteTheme;
#X obj 70 171 expr if($f1 != $f2 \, $f1 \, 0) \; if($f1 != $f2 \, $f2
+1 \, 0) \; if($f1 == $f2 \, $f1 \, 0);
#X obj 270 186 spigot;
#X obj 270 171 t b f;
#X obj 316 186 r pressedTheme;
#X obj 270 201 f;
#X obj 295 201 pack 0 0 0;
#X obj 428 170 r offSignal;
#X obj 453 200 pack 0 0 0;
#X obj 428 200 f;
#X obj 70 250 expr if($f1 != $f2 \, $f1 \, 0) \; if($f1 != $f2 \, $f2
+1 \, 0) \; if($f1 == $f2 \, $f1 \, 0);
#X obj 270 265 spigot;
#X obj 270 250 t b f;
#X obj 316 265 r pressedTheme;
#X obj 270 280 f;
#X obj 295 280 pack 0 0 0;
#X obj 428 249 r offSignal;
#X obj 453 279 pack 0 0 0;
#X obj 428 279 f;
#X obj 452 264 r whiteTheme;
#X obj 70 329 expr if($f1 != $f2 \, $f1 \, 0) \; if($f1 != $f2 \, $f2
+1 \, 0) \; if($f1 == $f2 \, $f1 \, 0);
#X obj 270 344 spigot;
#X obj 270 329 t b f;
#X obj 316 344 r pressedTheme;
#X obj 270 359 f;
#X obj 295 359 pack 0 0 0;
#X obj 428 328 r offSignal;
#X obj 453 358 pack 0 0 0;
#X obj 428 358 f;
#X floatatom 70 134 5 0 0 0 - - -, f 5;
#X floatatom 70 213 5 0 0 0 - - -, f 5;
#X floatatom 70 292 5 0 0 0 - - -, f 5;
#X floatatom 70 371 5 0 0 0 - - -, f 5;
#X msg 270 137 \; key36 color \$1 \$2 \$3;
#X msg 428 136 \; key36 color \$1 \$2 \$3;
#X msg 270 216 \; key37 color \$1 \$2 \$3;
#X msg 428 215 \; key37 color \$1 \$2 \$3;
#X msg 270 295 \; key38 color \$1 \$2 \$3;
#X msg 428 294 \; key38 color \$1 \$2 \$3;
#X msg 270 374 \; key39 color \$1 \$2 \$3;
#X msg 428 373 \; key39 color \$1 \$2 \$3;
#X obj 452 185 r blackTheme;
#X obj 452 343 r blackTheme;
#X obj 70 409 expr if($f1 != $f2 \, $f1 \, 0) \; if($f1 != $f2 \, $f2
+1 \, 0) \; if($f1 == $f2 \, $f1 \, 0);
#X obj 270 424 spigot;
#X obj 270 409 t b f;
#X obj 316 424 r pressedTheme;
#X obj 270 439 f;
#X obj 295 439 pack 0 0 0;
#X obj 428 408 r offSignal;
#X obj 453 438 pack 0 0 0;
#X obj 428 438 f;
#X floatatom 70 451 5 0 0 0 - - -, f 5;
#X msg 270 454 \; key40 color \$1 \$2 \$3;
#X msg 428 453 \; key40 color \$1 \$2 \$3;
#X obj 70 489 expr if($f1 != $f2 \, $f1 \, 0) \; if($f1 != $f2 \, $f2
+1 \, 0) \; if($f1 == $f2 \, $f1 \, 0);
#X obj 270 504 spigot;
#X obj 270 489 t b f;
#X obj 316 504 r pressedTheme;
#X obj 270 519 f;
#X obj 295 519 pack 0 0 0;
#X obj 428 488 r offSignal;
#X obj 453 518 pack 0 0 0;
#X obj 428 518 f;
#X floatatom 70 531 5 0 0 0 - - -, f 5;
#X obj 70 569 expr if($f1 != $f2 \, $f1 \, 0) \; if($f1 != $f2 \, $f2
+1 \, 0) \; if($f1 == $f2 \, $f1 \, 0);
#X obj 270 584 spigot;
#X obj 270 569 t b f;
#X obj 316 584 r pressedTheme;
#X obj 270 599 f;
#X obj 295 599 pack 0 0 0;
#X obj 428 568 r offSignal;
#X obj 453 598 pack 0 0 0;
#X obj 428 598 f;
#X floatatom 70 611 5 0 0 0 - - -, f 5;
#X obj 452 583 r blackTheme;
#X obj 70 650 expr if($f1 != $f2 \, $f1 \, 0) \; if($f1 != $f2 \, $f2
+1 \, 0) \; if($f1 == $f2 \, $f1 \, 0);
#X obj 270 665 spigot;
#X obj 270 650 t b f;
#X obj 316 665 r pressedTheme;
#X obj 270 680 f;
#X obj 295 680 pack 0 0 0;
#X obj 428 649 r offSignal;
#X obj 453 679 pack 0 0 0;
#X obj 428 679 f;
#X obj 452 664 r whiteTheme;
#X obj 70 729 expr if($f1 != $f2 \, $f1 \, 0) \; if($f1 != $f2 \, $f2
+1 \, 0) \; if($f1 == $f2 \, $f1 \, 0);
#X obj 270 744 spigot;
#X obj 270 729 t b f;
#X obj 316 744 r pressedTheme;
#X obj 270 759 f;
#X obj 295 759 pack 0 0 0;
#X obj 428 728 r offSignal;
#X obj 453 758 pack 0 0 0;
#X obj 428 758 f;
#X floatatom 70 692 5 0 0 0 - - -, f 5;
#X floatatom 70 771 5 0 0 0 - - -, f 5;
#X obj 452 743 r blackTheme;
#X obj 70 809 expr if($f1 != $f2 \, $f1 \, 0) \; if($f1 != $f2 \, $f2
+1 \, 0) \; if($f1 == $f2 \, $f1 \, 0);
#X obj 270 824 spigot;
#X obj 270 809 t b f;
#X obj 316 824 r pressedTheme;
#X obj 270 839 f;
#X obj 295 839 pack 0 0 0;
#X obj 428 808 r offSignal;
#X obj 453 838 pack 0 0 0;
#X obj 428 838 f;
#X floatatom 70 851 5 0 0 0 - - -, f 5;
#X obj 70 889 expr if($f1 != $f2 \, $f1 \, 0) \; if($f1 != $f2 \, $f2
+1 \, 0) \; if($f1 == $f2 \, $f1 \, 0);
#X obj 270 904 spigot;
#X obj 270 889 t b f;
#X obj 316 904 r pressedTheme;
#X obj 270 919 f;
#X obj 295 919 pack 0 0 0;
#X obj 428 888 r offSignal;
#X obj 453 918 pack 0 0 0;
#X obj 428 918 f;
#X floatatom 70 931 5 0 0 0 - - -, f 5;
#X obj 452 903 r blackTheme;
#X obj 70 969 expr if($f1 != $f2 \, $f1 \, 0) \; if($f1 != $f2 \, $f2
+1 \, 0) \; if($f1 == $f2 \, $f1 \, 0);
#X obj 270 984 spigot;
#X obj 270 969 t b f;
#X obj 316 984 r pressedTheme;
#X obj 270 999 f;
#X obj 295 999 pack 0 0 0;
#X obj 428 968 r offSignal;
#X obj 453 998 pack 0 0 0;
#X obj 428 998 f;
#X floatatom 70 1011 5 0 0 0 - - -, f 5;
#X msg 270 534 \; key41 color \$1 \$2 \$3;
#X msg 428 533 \; key41 color \$1 \$2 \$3;
#X msg 270 614 \; key42 color \$1 \$2 \$3;
#X msg 428 613 \; key42 color \$1 \$2 \$3;
#X msg 428 694 \; key43 color \$1 \$2 \$3;
#X msg 270 695 \; key43 color \$1 \$2 \$3;
#X msg 270 774 \; key44 color \$1 \$2 \$3;
#X msg 428 773 \; key44 color \$1 \$2 \$3;
#X msg 270 854 \; key45 color \$1 \$2 \$3;
#X msg 428 853 \; key45 color \$1 \$2 \$3;
#X msg 428 933 \; key46 color \$1 \$2 \$3;
#X msg 270 934 \; key46 color \$1 \$2 \$3;
#X msg 270 1014 \; key47 color \$1 \$2 \$3;
#X msg 428 1013 \; key47 color \$1 \$2 \$3;
#X obj 452 423 r whiteTheme;
#X obj 452 503 r whiteTheme;
#X obj 452 823 r whiteTheme;
#X obj 452 983 r whiteTheme;
#X obj 630 92 expr if($f1 != $f2 \, $f1 \, 0) \; if($f1 != $f2 \, $f2
+1 \, 0) \; if($f1 == $f2 \, $f1 \, 0);
#X obj 830 107 spigot;
#X obj 830 92 t b f;
#X obj 876 107 r pressedTheme;
#X obj 830 122 f;
#X obj 855 122 pack 0 0 0;
#X obj 988 91 r offSignal;
#X obj 1013 121 pack 0 0 0;
#X obj 988 121 f;
#X obj 1012 106 r whiteTheme;
#X obj 630 171 expr if($f1 != $f2 \, $f1 \, 0) \; if($f1 != $f2 \,
$f2 +1 \, 0) \; if($f1 == $f2 \, $f1 \, 0);
#X obj 830 186 spigot;
#X obj 830 171 t b f;
#X obj 876 186 r pressedTheme;
#X obj 830 201 f;
#X obj 855 201 pack 0 0 0;
#X obj 988 170 r offSignal;
#X obj 1013 200 pack 0 0 0;
#X obj 988 200 f;
#X obj 630 250 expr if($f1 != $f2 \, $f1 \, 0) \; if($f1 != $f2 \,
$f2 +1 \, 0) \; if($f1 == $f2 \, $f1 \, 0);
#X obj 830 265 spigot;
#X obj 830 250 t b f;
#X obj 876 265 r pressedTheme;
#X obj 830 280 f;
#X obj 855 280 pack 0 0 0;
#X obj 988 249 r offSignal;
#X obj 1013 279 pack 0 0 0;
#X obj 988 279 f;
#X obj 1012 264 r whiteTheme;
#X obj 630 329 expr if($f1 != $f2 \, $f1 \, 0) \; if($f1 != $f2 \,
$f2 +1 \, 0) \; if($f1 == $f2 \, $f1 \, 0);
#X obj 830 344 spigot;
#X obj 830 329 t b f;
#X obj 876 344 r pressedTheme;
#X obj 830 359 f;
#X obj 855 359 pack 0 0 0;
#X obj 988 328 r offSignal;
#X obj 1013 358 pack 0 0 0;
#X obj 988 358 f;
#X floatatom 630 134 5 0 0 0 - - -, f 5;
#X floatatom 630 213 5 0 0 0 - - -, f 5;
#X floatatom 630 292 5 0 0 0 - - -, f 5;
#X floatatom 630 371 5 0 0 0 - - -, f 5;
#X obj 1012 185 r blackTheme;
#X obj 1012 343 r blackTheme;
#X obj 630 409 expr if($f1 != $f2 \, $f1 \, 0) \; if($f1 != $f2 \,
$f2 +1 \, 0) \; if($f1 == $f2 \, $f1 \, 0);
#X obj 830 424 spigot;
#X obj 830 409 t b f;
#X obj 876 424 r pressedTheme;
#X obj 830 439 f;
#X obj 855 439 pack 0 0 0;
#X obj 988 408 r offSignal;
#X obj 1013 438 pack 0 0 0;
#X obj 988 438 f;
#X floatatom 630 451 5 0 0 0 - - -, f 5;
#X obj 630 489 expr if($f1 != $f2 \, $f1 \, 0) \; if($f1 != $f2 \,
$f2 +1 \, 0) \; if($f1 == $f2 \, $f1 \, 0);
#X obj 830 504 spigot;
#X obj 830 489 t b f;
#X obj 876 504 r pressedTheme;
#X obj 830 519 f;
#X obj 855 519 pack 0 0 0;
#X obj 988 488 r offSignal;
#X obj 1013 518 pack 0 0 0;
#X obj 988 518 f;
#X floatatom 630 531 5 0 0 0 - - -, f 5;
#X obj 630 569 expr if($f1 != $f2 \, $f1 \, 0) \; if($f1 != $f2 \,
$f2 +1 \, 0) \; if($f1 == $f2 \, $f1 \, 0);
#X obj 830 584 spigot;
#X obj 830 569 t b f;
#X obj 876 584 r pressedTheme;
#X obj 830 599 f;
#X obj 855 599 pack 0 0 0;
#X obj 988 568 r offSignal;
#X obj 1013 598 pack 0 0 0;
#X obj 988 598 f;
#X floatatom 630 611 5 0 0 0 - - -, f 5;
#X obj 1012 583 r blackTheme;
#X obj 630 650 expr if($f1 != $f2 \, $f1 \, 0) \; if($f1 != $f2 \,
$f2 +1 \, 0) \; if($f1 == $f2 \, $f1 \, 0);
#X obj 830 665 spigot;
#X obj 830 650 t b f;
#X obj 876 665 r pressedTheme;
#X obj 830 680 f;
#X obj 855 680 pack 0 0 0;
#X obj 988 649 r offSignal;
#X obj 1013 679 pack 0 0 0;
#X obj 988 679 f;
#X obj 1012 664 r whiteTheme;
#X obj 630 729 expr if($f1 != $f2 \, $f1 \, 0) \; if($f1 != $f2 \,
$f2 +1 \, 0) \; if($f1 == $f2 \, $f1 \, 0);
#X obj 830 744 spigot;
#X obj 830 729 t b f;
#X obj 876 744 r pressedTheme;
#X obj 830 759 f;
#X obj 855 759 pack 0 0 0;
#X obj 988 728 r offSignal;
#X obj 1013 758 pack 0 0 0;
#X obj 988 758 f;
#X floatatom 630 692 5 0 0 0 - - -, f 5;
#X floatatom 630 771 5 0 0 0 - - -, f 5;
#X obj 1012 743 r blackTheme;
#X obj 630 809 expr if($f1 != $f2 \, $f1 \, 0) \; if($f1 != $f2 \,
$f2 +1 \, 0) \; if($f1 == $f2 \, $f1 \, 0);
#X obj 830 824 spigot;
#X obj 830 809 t b f;
#X obj 876 824 r pressedTheme;
#X obj 830 839 f;
#X obj 855 839 pack 0 0 0;
#X obj 988 808 r offSignal;
#X obj 1013 838 pack 0 0 0;
#X obj 988 838 f;
#X floatatom 630 851 5 0 0 0 - - -, f 5;
#X obj 630 889 expr if($f1 != $f2 \, $f1 \, 0) \; if($f1 != $f2 \,
$f2 +1 \, 0) \; if($f1 == $f2 \, $f1 \, 0);
#X obj 830 904 spigot;
#X obj 830 889 t b f;
#X obj 876 904 r pressedTheme;
#X obj 830 919 f;
#X obj 855 919 pack 0 0 0;
#X obj 988 888 r offSignal;
#X obj 1013 918 pack 0 0 0;
#X obj 988 918 f;
#X floatatom 630 931 5 0 0 0 - - -, f 5;
#X obj 1012 903 r blackTheme;
#X obj 630 969 expr if($f1 != $f2 \, $f1 \, 0) \; if($f1 != $f2 \,
$f2 +1 \, 0) \; if($f1 == $f2 \, $f1 \, 0);
#X obj 830 984 spigot;
#X obj 830 969 t b f;
#X obj 876 984 r pressedTheme;
#X obj 830 999 f;
#X obj 855 999 pack 0 0 0;
#X obj 988 968 r offSignal;
#X obj 1013 998 pack 0 0 0;
#X obj 988 998 f;
#X floatatom 630 1011 5 0 0 0 - - -, f 5;
#X obj 1012 423 r whiteTheme;
#X obj 1012 503 r whiteTheme;
#X obj 1012 823 r whiteTheme;
#X obj 1012 983 r whiteTheme;
#X msg 830 137 \; key48 color \$1 \$2 \$3;
#X msg 988 136 \; key48 color \$1 \$2 \$3;
#X msg 830 216 \; key49 color \$1 \$2 \$3;
#X msg 988 215 \; key49 color \$1 \$2 \$3;
#X msg 830 295 \; key50 color \$1 \$2 \$3;
#X msg 988 294 \; key50 color \$1 \$2 \$3;
#X msg 830 374 \; key51 color \$1 \$2 \$3;
#X msg 988 373 \; key51 color \$1 \$2 \$3;
#X msg 830 454 \; key52 color \$1 \$2 \$3;
#X msg 988 453 \; key52 color \$1 \$2 \$3;
#X msg 830 534 \; key53 color \$1 \$2 \$3;
#X msg 988 533 \; key53 color \$1 \$2 \$3;
#X msg 988 613 \; key54 color \$1 \$2 \$3;
#X msg 830 614 \; key54 color \$1 \$2 \$3;
#X msg 830 695 \; key55 color \$1 \$2 \$3;
#X msg 988 694 \; key55 color \$1 \$2 \$3;
#X msg 988 773 \; key56 color \$1 \$2 \$3;
#X msg 830 774 \; key56 color \$1 \$2 \$3;
#X msg 830 854 \; key57 color \$1 \$2 \$3;
#X msg 988 853 \; key57 color \$1 \$2 \$3;
#X msg 988 933 \; key58 color \$1 \$2 \$3;
#X msg 830 934 \; key58 color \$1 \$2 \$3;
#X msg 830 1014 \; key59 color \$1 \$2 \$3;
#X msg 988 1013 \; key59 color \$1 \$2 \$3;
#X obj 1210 92 expr if($f1 != $f2 \, $f1 \, 0) \; if($f1 != $f2 \,
$f2 +1 \, 0) \; if($f1 == $f2 \, $f1 \, 0);
#X obj 1410 107 spigot;
#X obj 1410 92 t b f;
#X obj 1456 107 r pressedTheme;
#X obj 1410 122 f;
#X obj 1435 122 pack 0 0 0;
#X obj 1568 91 r offSignal;
#X obj 1593 121 pack 0 0 0;
#X obj 1568 121 f;
#X obj 1592 106 r whiteTheme;
#X obj 1210 171 expr if($f1 != $f2 \, $f1 \, 0) \; if($f1 != $f2 \,
$f2 +1 \, 0) \; if($f1 == $f2 \, $f1 \, 0);
#X obj 1410 186 spigot;
#X obj 1410 171 t b f;
#X obj 1456 186 r pressedTheme;
#X obj 1410 201 f;
#X obj 1435 201 pack 0 0 0;
#X obj 1568 170 r offSignal;
#X obj 1593 200 pack 0 0 0;
#X obj 1568 200 f;
#X obj 1210 250 expr if($f1 != $f2 \, $f1 \, 0) \; if($f1 != $f2 \,
$f2 +1 \, 0) \; if($f1 == $f2 \, $f1 \, 0);
#X obj 1410 265 spigot;
#X obj 1410 250 t b f;
#X obj 1456 265 r pressedTheme;
#X obj 1410 280 f;
#X obj 1435 280 pack 0 0 0;
#X obj 1568 249 r offSignal;
#X obj 1593 279 pack 0 0 0;
#X obj 1568 279 f;
#X obj 1592 264 r whiteTheme;
#X obj 1210 329 expr if($f1 != $f2 \, $f1 \, 0) \; if($f1 != $f2 \,
$f2 +1 \, 0) \; if($f1 == $f2 \, $f1 \, 0);
#X obj 1410 344 spigot;
#X obj 1410 329 t b f;
#X obj 1456 344 r pressedTheme;
#X obj 1410 359 f;
#X obj 1435 359 pack 0 0 0;
#X obj 1568 328 r offSignal;
#X obj 1593 358 pack 0 0 0;
#X obj 1568 358 f;
#X floatatom 1210 134 5 0 0 0 - - -, f 5;
#X floatatom 1210 213 5 0 0 0 - - -, f 5;
#X floatatom 1210 292 5 0 0 0 - - -, f 5;
#X floatatom 1210 371 5 0 0 0 - - -, f 5;
#X obj 1592 185 r blackTheme;
#X obj 1592 343 r blackTheme;
#X obj 1210 409 expr if($f1 != $f2 \, $f1 \, 0) \; if($f1 != $f2 \,
$f2 +1 \, 0) \; if($f1 == $f2 \, $f1 \, 0);
#X obj 1410 424 spigot;
#X obj 1410 409 t b f;
#X obj 1456 424 r pressedTheme;
#X obj 1410 439 f;
#X obj 1435 439 pack 0 0 0;
#X obj 1568 408 r offSignal;
#X obj 1593 438 pack 0 0 0;
#X obj 1568 438 f;
#X floatatom 1210 451 5 0 0 0 - - -, f 5;
#X obj 1210 489 expr if($f1 != $f2 \, $f1 \, 0) \; if($f1 != $f2 \,
$f2 +1 \, 0) \; if($f1 == $f2 \, $f1 \, 0);
#X obj 1410 504 spigot;
#X obj 1410 489 t b f;
#X obj 1456 504 r pressedTheme;
#X obj 1410 519 f;
#X obj 1435 519 pack 0 0 0;
#X obj 1568 488 r offSignal;
#X obj 1593 518 pack 0 0 0;
#X obj 1568 518 f;
#X floatatom 1210 531 5 0 0 0 - - -, f 5;
#X obj 1210 569 expr if($f1 != $f2 \, $f1 \, 0) \; if($f1 != $f2 \,
$f2 +1 \, 0) \; if($f1 == $f2 \, $f1 \, 0);
#X obj 1410 584 spigot;
#X obj 1410 569 t b f;
#X obj 1456 584 r pressedTheme;
#X obj 1410 599 f;
#X obj 1435 599 pack 0 0 0;
#X obj 1568 568 r offSignal;
#X obj 1593 598 pack 0 0 0;
#X obj 1568 598 f;
#X floatatom 1210 611 5 0 0 0 - - -, f 5;
#X obj 1592 583 r blackTheme;
#X obj 1210 650 expr if($f1 != $f2 \, $f1 \, 0) \; if($f1 != $f2 \,
$f2 +1 \, 0) \; if($f1 == $f2 \, $f1 \, 0);
#X obj 1410 665 spigot;
#X obj 1410 650 t b f;
#X obj 1456 665 r pressedTheme;
#X obj 1410 680 f;
#X obj 1435 680 pack 0 0 0;
#X obj 1568 649 r offSignal;
#X obj 1593 679 pack 0 0 0;
#X obj 1568 679 f;
#X obj 1592 664 r whiteTheme;
#X obj 1210 729 expr if($f1 != $f2 \, $f1 \, 0) \; if($f1 != $f2 \,
$f2 +1 \, 0) \; if($f1 == $f2 \, $f1 \, 0);
#X obj 1410 744 spigot;
#X obj 1410 729 t b f;
#X obj 1456 744 r pressedTheme;
#X obj 1410 759 f;
#X obj 1435 759 pack 0 0 0;
#X obj 1568 728 r offSignal;
#X obj 1593 758 pack 0 0 0;
#X obj 1568 758 f;
#X floatatom 1210 692 5 0 0 0 - - -, f 5;
#X floatatom 1210 771 5 0 0 0 - - -, f 5;
#X obj 1592 743 r blackTheme;
#X obj 1210 809 expr if($f1 != $f2 \, $f1 \, 0) \; if($f1 != $f2 \,
$f2 +1 \, 0) \; if($f1 == $f2 \, $f1 \, 0);
#X obj 1410 824 spigot;
#X obj 1410 809 t b f;
#X obj 1456 824 r pressedTheme;
#X obj 1410 839 f;
#X obj 1435 839 pack 0 0 0;
#X obj 1568 808 r offSignal;
#X obj 1593 838 pack 0 0 0;
#X obj 1568 838 f;
#X floatatom 1210 851 5 0 0 0 - - -, f 5;
#X obj 1210 889 expr if($f1 != $f2 \, $f1 \, 0) \; if($f1 != $f2 \,
$f2 +1 \, 0) \; if($f1 == $f2 \, $f1 \, 0);
#X obj 1410 904 spigot;
#X obj 1410 889 t b f;
#X obj 1456 904 r pressedTheme;
#X obj 1410 919 f;
#X obj 1435 919 pack 0 0 0;
#X obj 1568 888 r offSignal;
#X obj 1593 918 pack 0 0 0;
#X obj 1568 918 f;
#X floatatom 1210 931 5 0 0 0 - - -, f 5;
#X obj 1592 903 r blackTheme;
#X obj 1210 969 expr if($f1 != $f2 \, $f1 \, 0) \; if($f1 != $f2 \,
$f2 +1 \, 0) \; if($f1 == $f2 \, $f1 \, 0);
#X obj 1410 984 spigot;
#X obj 1410 969 t b f;
#X obj 1456 984 r pressedTheme;
#X obj 1410 999 f;
#X obj 1435 999 pack 0 0 0;
#X obj 1568 968 r offSignal;
#X obj 1593 998 pack 0 0 0;
#X obj 1568 998 f;
#X floatatom 1210 1011 5 0 0 0 - - -, f 5;
#X obj 1592 423 r whiteTheme;
#X obj 1592 503 r whiteTheme;
#X obj 1592 823 r whiteTheme;
#X obj 1592 983 r whiteTheme;
#X obj 1770 92 expr if($f1 != $f2 \, $f1 \, 0) \; if($f1 != $f2 \,
$f2 +1 \, 0) \; if($f1 == $f2 \, $f1 \, 0);
#X obj 1970 107 spigot;
#X obj 1970 92 t b f;
#X obj 2016 107 r pressedTheme;
#X obj 1970 122 f;
#X obj 1995 122 pack 0 0 0;
#X obj 2128 91 r offSignal;
#X obj 2153 121 pack 0 0 0;
#X obj 2128 121 f;
#X obj 2152 106 r whiteTheme;
#X obj 1770 171 expr if($f1 != $f2 \, $f1 \, 0) \; if($f1 != $f2 \,
$f2 +1 \, 0) \; if($f1 == $f2 \, $f1 \, 0);
#X obj 1970 186 spigot;
#X obj 1970 171 t b f;
#X obj 2016 186 r pressedTheme;
#X obj 1970 201 f;
#X obj 1995 201 pack 0 0 0;
#X obj 2128 170 r offSignal;
#X obj 2153 200 pack 0 0 0;
#X obj 2128 200 f;
#X obj 1770 250 expr if($f1 != $f2 \, $f1 \, 0) \; if($f1 != $f2 \,
$f2 +1 \, 0) \; if($f1 == $f2 \, $f1 \, 0);
#X obj 1970 265 spigot;
#X obj 1970 250 t b f;
#X obj 2016 265 r pressedTheme;
#X obj 1970 280 f;
#X obj 1995 280 pack 0 0 0;
#X obj 2128 249 r offSignal;
#X obj 2153 279 pack 0 0 0;
#X obj 2128 279 f;
#X obj 2152 264 r whiteTheme;
#X obj 1770 329 expr if($f1 != $f2 \, $f1 \, 0) \; if($f1 != $f2 \,
$f2 +1 \, 0) \; if($f1 == $f2 \, $f1 \, 0);
#X obj 1970 344 spigot;
#X obj 1970 329 t b f;
#X obj 2016 344 r pressedTheme;
#X obj 1970 359 f;
#X obj 1995 359 pack 0 0 0;
#X obj 2128 328 r offSignal;
#X obj 2153 358 pack 0 0 0;
#X obj 2128 358 f;
#X floatatom 1770 134 5 0 0 0 - - -, f 5;
#X floatatom 1770 213 5 0 0 0 - - -, f 5;
#X floatatom 1770 292 5 0 0 0 - - -, f 5;
#X floatatom 1770 371 5 0 0 0 - - -, f 5;
#X obj 2152 185 r blackTheme;
#X obj 2152 343 r blackTheme;
#X obj 1770 409 expr if($f1 != $f2 \, $f1 \, 0) \; if($f1 != $f2 \,
$f2 +1 \, 0) \; if($f1 == $f2 \, $f1 \, 0);
#X obj 1970 424 spigot;
#X obj 1970 409 t b f;
#X obj 2016 424 r pressedTheme;
#X obj 1970 439 f;
#X obj 1995 439 pack 0 0 0;
#X obj 2128 408 r offSignal;
#X obj 2153 438 pack 0 0 0;
#X obj 2128 438 f;
#X floatatom 1770 451 5 0 0 0 - - -, f 5;
#X obj 1770 489 expr if($f1 != $f2 \, $f1 \, 0) \; if($f1 != $f2 \,
$f2 +1 \, 0) \; if($f1 == $f2 \, $f1 \, 0);
#X obj 1970 504 spigot;
#X obj 1970 489 t b f;
#X obj 2016 504 r pressedTheme;
#X obj 1970 519 f;
#X obj 1995 519 pack 0 0 0;
#X obj 2128 488 r offSignal;
#X obj 2153 518 pack 0 0 0;
#X obj 2128 518 f;
#X floatatom 1770 531 5 0 0 0 - - -, f 5;
#X obj 1770 569 expr if($f1 != $f2 \, $f1 \, 0) \; if($f1 != $f2 \,
$f2 +1 \, 0) \; if($f1 == $f2 \, $f1 \, 0);
#X obj 1970 584 spigot;
#X obj 1970 569 t b f;
#X obj 2016 584 r pressedTheme;
#X obj 1970 599 f;
#X obj 1995 599 pack 0 0 0;
#X obj 2128 568 r offSignal;
#X obj 2153 598 pack 0 0 0;
#X obj 2128 598 f;
#X floatatom 1770 611 5 0 0 0 - - -, f 5;
#X obj 2152 583 r blackTheme;
#X obj 1770 650 expr if($f1 != $f2 \, $f1 \, 0) \; if($f1 != $f2 \,
$f2 +1 \, 0) \; if($f1 == $f2 \, $f1 \, 0);
#X obj 1970 665 spigot;
#X obj 1970 650 t b f;
#X obj 2016 665 r pressedTheme;
#X obj 1970 680 f;
#X obj 1995 680 pack 0 0 0;
#X obj 2128 649 r offSignal;
#X obj 2153 679 pack 0 0 0;
#X obj 2128 679 f;
#X obj 2152 664 r whiteTheme;
#X obj 1770 729 expr if($f1 != $f2 \, $f1 \, 0) \; if($f1 != $f2 \,
$f2 +1 \, 0) \; if($f1 == $f2 \, $f1 \, 0);
#X obj 1970 744 spigot;
#X obj 1970 729 t b f;
#X obj 2016 744 r pressedTheme;
#X obj 1970 759 f;
#X obj 1995 759 pack 0 0 0;
#X obj 2128 728 r offSignal;
#X obj 2153 758 pack 0 0 0;
#X obj 2128 758 f;
#X floatatom 1770 692 5 0 0 0 - - -, f 5;
#X floatatom 1770 771 5 0 0 0 - - -, f 5;
#X obj 2152 743 r blackTheme;
#X obj 1770 809 expr if($f1 != $f2 \, $f1 \, 0) \; if($f1 != $f2 \,
$f2 +1 \, 0) \; if($f1 == $f2 \, $f1 \, 0);
#X obj 1970 824 spigot;
#X obj 1970 809 t b f;
#X obj 2016 824 r pressedTheme;
#X obj 1970 839 f;
#X obj 1995 839 pack 0 0 0;
#X obj 2128 808 r offSignal;
#X obj 2153 838 pack 0 0 0;
#X obj 2128 838 f;
#X floatatom 1770 851 5 0 0 0 - - -, f 5;
#X obj 1770 889 expr if($f1 != $f2 \, $f1 \, 0) \; if($f1 != $f2 \,
$f2 +1 \, 0) \; if($f1 == $f2 \, $f1 \, 0);
#X obj 1970 904 spigot;
#X obj 1970 889 t b f;
#X obj 2016 904 r pressedTheme;
#X obj 1970 919 f;
#X obj 1995 919 pack 0 0 0;
#X obj 2128 888 r offSignal;
#X obj 2153 918 pack 0 0 0;
#X obj 2128 918 f;
#X floatatom 1770 931 5 0 0 0 - - -, f 5;
#X obj 2152 903 r blackTheme;
#X obj 1770 969 expr if($f1 != $f2 \, $f1 \, 0) \; if($f1 != $f2 \,
$f2 +1 \, 0) \; if($f1 == $f2 \, $f1 \, 0);
#X obj 1970 984 spigot;
#X obj 1970 969 t b f;
#X obj 2016 984 r pressedTheme;
#X obj 1970 999 f;
#X obj 1995 999 pack 0 0 0;
#X obj 2128 968 r offSignal;
#X obj 2153 998 pack 0 0 0;
#X obj 2128 998 f;
#X floatatom 1770 1011 5 0 0 0 - - -, f 5;
#X obj 2152 423 r whiteTheme;
#X obj 2152 503 r whiteTheme;
#X obj 2152 823 r whiteTheme;
#X obj 2152 983 r whiteTheme;
#X msg 1410 137 \; key60 color \$1 \$2 \$3;
#X msg 1568 136 \; key60 color \$1 \$2 \$3;
#X msg 1410 216 \; key61 color \$1 \$2 \$3;
#X msg 1568 215 \; key61 color \$1 \$2 \$3;
#X msg 1568 294 \; key62 color \$1 \$2 \$3;
#X msg 1410 295 \; key62 color \$1 \$2 \$3;
#X msg 1410 374 \; key63 color \$1 \$2 \$3;
#X msg 1568 373 \; key63 color \$1 \$2 \$3;
#X msg 1568 453 \; key64 color \$1 \$2 \$3;
#X msg 1410 454 \; key64 color \$1 \$2 \$3;
#X msg 1410 534 \; key65 color \$1 \$2 \$3;
#X msg 1568 533 \; key65 color \$1 \$2 \$3;
#X msg 1568 613 \; key66 color \$1 \$2 \$3;
#X msg 1410 614 \; key66 color \$1 \$2 \$3;
#X msg 1410 695 \; key67 color \$1 \$2 \$3;
#X msg 1568 694 \; key67 color \$1 \$2 \$3;
#X msg 1568 773 \; key68 color \$1 \$2 \$3;
#X msg 1410 774 \; key68 color \$1 \$2 \$3;
#X msg 1410 854 \; key69 color \$1 \$2 \$3;
#X msg 1568 853 \; key69 color \$1 \$2 \$3;
#X msg 1568 933 \; key70 color \$1 \$2 \$3;
#X msg 1410 934 \; key70 color \$1 \$2 \$3;
#X msg 1410 1014 \; key71 color \$1 \$2 \$3;
#X msg 1568 1013 \; key71 color \$1 \$2 \$3;
#X msg 1970 137 \; key72 color \$1 \$2 \$3;
#X msg 2128 136 \; key72 color \$1 \$2 \$3;
#X msg 2128 215 \; key73 color \$1 \$2 \$3;
#X msg 1970 216 \; key73 color \$1 \$2 \$3;
#X msg 1970 295 \; key74 color \$1 \$2 \$3;
#X msg 2128 294 \; key74 color \$1 \$2 \$3;
#X msg 1970 374 \; key75 color \$1 \$2 \$3;
#X msg 2128 373 \; key75 color \$1 \$2 \$3;
#X msg 2128 453 \; key76 color \$1 \$2 \$3;
#X msg 1970 454 \; key76 color \$1 \$2 \$3;
#X msg 1970 534 \; key77 color \$1 \$2 \$3;
#X msg 2128 533 \; key77 color \$1 \$2 \$3;
#X msg 2128 613 \; key78 color \$1 \$2 \$3;
#X msg 1970 614 \; key78 color \$1 \$2 \$3;
#X msg 1970 695 \; key79 color \$1 \$2 \$3;
#X msg 2128 694 \; key79 color \$1 \$2 \$3;
#X msg 2128 773 \; key80 color \$1 \$2 \$3;
#X msg 1970 774 \; key80 color \$1 \$2 \$3;
#X msg 1970 854 \; key81 color \$1 \$2 \$3;
#X msg 2128 853 \; key81 color \$1 \$2 \$3;
#X msg 2128 933 \; key82 color \$1 \$2 \$3;
#X msg 1970 934 \; key82 color \$1 \$2 \$3;
#X msg 1970 1014 \; key83 color \$1 \$2 \$3;
#X msg 2128 1013 \; key83 color \$1 \$2 \$3;
#X obj 2320 92 expr if($f1 != $f2 \, $f1 \, 0) \; if($f1 != $f2 \,
$f2 +1 \, 0) \; if($f1 == $f2 \, $f1 \, 0);
#X obj 2520 107 spigot;
#X obj 2520 92 t b f;
#X obj 2566 107 r pressedTheme;
#X obj 2520 122 f;
#X obj 2545 122 pack 0 0 0;
#X obj 2678 91 r offSignal;
#X obj 2703 121 pack 0 0 0;
#X obj 2678 121 f;
#X obj 2702 106 r whiteTheme;
#X obj 2320 171 expr if($f1 != $f2 \, $f1 \, 0) \; if($f1 != $f2 \,
$f2 +1 \, 0) \; if($f1 == $f2 \, $f1 \, 0);
#X obj 2520 186 spigot;
#X obj 2520 171 t b f;
#X obj 2566 186 r pressedTheme;
#X obj 2520 201 f;
#X obj 2545 201 pack 0 0 0;
#X obj 2678 170 r offSignal;
#X obj 2703 200 pack 0 0 0;
#X obj 2678 200 f;
#X obj 2320 250 expr if($f1 != $f2 \, $f1 \, 0) \; if($f1 != $f2 \,
$f2 +1 \, 0) \; if($f1 == $f2 \, $f1 \, 0);
#X obj 2520 265 spigot;
#X obj 2520 250 t b f;
#X obj 2566 265 r pressedTheme;
#X obj 2520 280 f;
#X obj 2545 280 pack 0 0 0;
#X obj 2678 249 r offSignal;
#X obj 2703 279 pack 0 0 0;
#X obj 2678 279 f;
#X obj 2702 264 r whiteTheme;
#X obj 2320 329 expr if($f1 != $f2 \, $f1 \, 0) \; if($f1 != $f2 \,
$f2 +1 \, 0) \; if($f1 == $f2 \, $f1 \, 0);
#X obj 2520 344 spigot;
#X obj 2520 329 t b f;
#X obj 2566 344 r pressedTheme;
#X obj 2520 359 f;
#X obj 2545 359 pack 0 0 0;
#X obj 2678 328 r offSignal;
#X obj 2703 358 pack 0 0 0;
#X obj 2678 358 f;
#X floatatom 2320 134 5 0 0 0 - - -, f 5;
#X floatatom 2320 213 5 0 0 0 - - -, f 5;
#X floatatom 2320 292 5 0 0 0 - - -, f 5;
#X floatatom 2320 371 5 0 0 0 - - -, f 5;
#X obj 2702 185 r blackTheme;
#X obj 2702 343 r blackTheme;
#X obj 2320 409 expr if($f1 != $f2 \, $f1 \, 0) \; if($f1 != $f2 \,
$f2 +1 \, 0) \; if($f1 == $f2 \, $f1 \, 0);
#X obj 2520 424 spigot;
#X obj 2520 409 t b f;
#X obj 2566 424 r pressedTheme;
#X obj 2520 439 f;
#X obj 2545 439 pack 0 0 0;
#X obj 2678 408 r offSignal;
#X obj 2703 438 pack 0 0 0;
#X obj 2678 438 f;
#X floatatom 2320 451 5 0 0 0 - - -, f 5;
#X obj 2320 489 expr if($f1 != $f2 \, $f1 \, 0) \; if($f1 != $f2 \,
$f2 +1 \, 0) \; if($f1 == $f2 \, $f1 \, 0);
#X obj 2520 504 spigot;
#X obj 2520 489 t b f;
#X obj 2566 504 r pressedTheme;
#X obj 2520 519 f;
#X obj 2545 519 pack 0 0 0;
#X obj 2678 488 r offSignal;
#X obj 2703 518 pack 0 0 0;
#X obj 2678 518 f;
#X floatatom 2320 531 5 0 0 0 - - -, f 5;
#X obj 2320 569 expr if($f1 != $f2 \, $f1 \, 0) \; if($f1 != $f2 \,
$f2 +1 \, 0) \; if($f1 == $f2 \, $f1 \, 0);
#X obj 2520 584 spigot;
#X obj 2520 569 t b f;
#X obj 2566 584 r pressedTheme;
#X obj 2520 599 f;
#X obj 2545 599 pack 0 0 0;
#X obj 2678 568 r offSignal;
#X obj 2703 598 pack 0 0 0;
#X obj 2678 598 f;
#X floatatom 2320 611 5 0 0 0 - - -, f 5;
#X obj 2702 583 r blackTheme;
#X obj 2320 650 expr if($f1 != $f2 \, $f1 \, 0) \; if($f1 != $f2 \,
$f2 +1 \, 0) \; if($f1 == $f2 \, $f1 \, 0);
#X obj 2520 665 spigot;
#X obj 2520 650 t b f;
#X obj 2566 665 r pressedTheme;
#X obj 2520 680 f;
#X obj 2545 680 pack 0 0 0;
#X obj 2678 649 r offSignal;
#X obj 2703 679 pack 0 0 0;
#X obj 2678 679 f;
#X obj 2702 664 r whiteTheme;
#X obj 2320 729 expr if($f1 != $f2 \, $f1 \, 0) \; if($f1 != $f2 \,
$f2 +1 \, 0) \; if($f1 == $f2 \, $f1 \, 0);
#X obj 2520 744 spigot;
#X obj 2520 729 t b f;
#X obj 2566 744 r pressedTheme;
#X obj 2520 759 f;
#X obj 2545 759 pack 0 0 0;
#X obj 2678 728 r offSignal;
#X obj 2703 758 pack 0 0 0;
#X obj 2678 758 f;
#X floatatom 2320 692 5 0 0 0 - - -, f 5;
#X floatatom 2320 771 5 0 0 0 - - -, f 5;
#X obj 2702 743 r blackTheme;
#X obj 2320 809 expr if($f1 != $f2 \, $f1 \, 0) \; if($f1 != $f2 \,
$f2 +1 \, 0) \; if($f1 == $f2 \, $f1 \, 0);
#X obj 2520 824 spigot;
#X obj 2520 809 t b f;
#X obj 2566 824 r pressedTheme;
#X obj 2520 839 f;
#X obj 2545 839 pack 0 0 0;
#X obj 2678 808 r offSignal;
#X obj 2703 838 pack 0 0 0;
#X obj 2678 838 f;
#X floatatom 2320 851 5 0 0 0 - - -, f 5;
#X obj 2320 889 expr if($f1 != $f2 \, $f1 \, 0) \; if($f1 != $f2 \,
$f2 +1 \, 0) \; if($f1 == $f2 \, $f1 \, 0);
#X obj 2520 904 spigot;
#X obj 2520 889 t b f;
#X obj 2566 904 r pressedTheme;
#X obj 2520 919 f;
#X obj 2545 919 pack 0 0 0;
#X obj 2678 888 r offSignal;
#X obj 2703 918 pack 0 0 0;
#X obj 2678 918 f;
#X floatatom 2320 931 5 0 0 0 - - -, f 5;
#X obj 2702 903 r blackTheme;
#X obj 2320 969 expr if($f1 != $f2 \, $f1 \, 0) \; if($f1 != $f2 \,
$f2 +1 \, 0) \; if($f1 == $f2 \, $f1 \, 0);
#X obj 2520 984 spigot;
#X obj 2520 969 t b f;
#X obj 2566 984 r pressedTheme;
#X obj 2520 999 f;
#X obj 2545 999 pack 0 0 0;
#X obj 2678 968 r offSignal;
#X obj 2703 998 pack 0 0 0;
#X obj 2678 998 f;
#X floatatom 2320 1011 5 0 0 0 - - -, f 5;
#X obj 2702 423 r whiteTheme;
#X obj 2702 503 r whiteTheme;
#X obj 2702 823 r whiteTheme;
#X obj 2702 983 r whiteTheme;
#X msg 2520 137 \; key84 color \$1 \$2 \$3;
#X msg 2678 136 \; key84 color \$1 \$2 \$3;
#X msg 2678 215 \; key85 color \$1 \$2 \$3;
#X msg 2520 216 \; key85 color \$1 \$2 \$3;
#X msg 2520 295 \; key86 color \$1 \$2 \$3;
#X msg 2678 294 \; key86 color \$1 \$2 \$3;
#X msg 2520 374 \; key87 color \$1 \$2 \$3;
#X msg 2678 373 \; key87 color \$1 \$2 \$3;
#X msg 2678 453 \; key88 color \$1 \$2 \$3;
#X msg 2520 454 \; key88 color \$1 \$2 \$3;
#X msg 2520 534 \; key89 color \$1 \$2 \$3;
#X msg 2678 533 \; key89 color \$1 \$2 \$3;
#X msg 2520 614 \; key90 color \$1 \$2 \$3;
#X msg 2678 613 \; key90 color \$1 \$2 \$3;
#X msg 2520 695 \; key91 color \$1 \$2 \$3;
#X msg 2678 694 \; key91 color \$1 \$2 \$3;
#X msg 2678 773 \; key92 color \$1 \$2 \$3;
#X msg 2520 774 \; key92 color \$1 \$2 \$3;
#X msg 2520 854 \; key93 color \$1 \$2 \$3;
#X msg 2678 853 \; key93 color \$1 \$2 \$3;
#X msg 2520 934 \; key94 color \$1 \$2 \$3;
#X msg 2678 933 \; key94 color \$1 \$2 \$3;
#X msg 2678 1013 \; key95 color \$1 \$2 \$3;
#X msg 2520 1014 \; key95 color \$1 \$2 \$3;
#X obj 2320 1049 expr if($f1 != $f2 \, $f1 \, 0) \; if($f1 != $f2 \,
$f2 +1 \, 0) \; if($f1 == $f2 \, $f1 \, 0);
#X obj 2520 1064 spigot;
#X obj 2520 1049 t b f;
#X obj 2566 1064 r pressedTheme;
#X obj 2520 1079 f;
#X obj 2545 1079 pack 0 0 0;
#X obj 2678 1048 r offSignal;
#X obj 2703 1078 pack 0 0 0;
#X obj 2678 1078 f;
#X floatatom 2320 1091 5 0 0 0 - - -, f 5;
#X obj 2702 1063 r whiteTheme;
#X msg 2520 1094 \; key96 color \$1 \$2 \$3;
#X msg 2678 1093 \; key96 color \$1 \$2 \$3;
#X connect 0 0 1 0;
#X connect 1 0 3 0;
#X connect 1 1 2 0;
#X connect 2 0 3 1;
#X connect 3 0 41 0;
#X connect 3 0 13 0;
#X connect 3 1 13 1;
#X connect 3 2 5 0;
#X connect 4 0 7 0;
#X connect 5 0 4 0;
#X connect 5 1 4 1;
#X connect 6 0 7 1;
#X connect 6 0 8 1;
#X connect 6 0 8 2;
#X connect 7 0 8 0;
#X connect 8 0 45 0;
#X connect 9 0 11 0;
#X connect 10 0 46 0;
#X connect 11 0 10 0;
#X connect 12 0 11 1;
#X connect 12 0 10 1;
#X connect 12 0 10 2;
#X connect 13 0 22 0;
#X connect 13 0 42 0;
#X connect 13 1 22 1;
#X connect 13 2 15 0;
#X connect 14 0 17 0;
#X connect 15 0 14 0;
#X connect 15 1 14 1;
#X connect 16 0 17 1;
#X connect 16 0 18 1;
#X connect 16 0 18 2;
#X connect 17 0 18 0;
#X connect 18 0 47 0;
#X connect 19 0 21 0;
#X connect 20 0 48 0;
#X connect 21 0 20 0;
#X connect 22 0 32 0;
#X connect 22 0 43 0;
#X connect 22 1 32 1;
#X connect 22 2 24 0;
#X connect 23 0 26 0;
#X connect 24 0 23 0;
#X connect 24 1 23 1;
#X connect 25 0 26 1;
#X connect 25 0 27 1;
#X connect 25 0 27 2;
#X connect 26 0 27 0;
#X connect 27 0 49 0;
#X connect 28 0 30 0;
#X connect 29 0 50 0;
#X connect 30 0 29 0;
#X connect 31 0 30 1;
#X connect 31 0 29 1;
#X connect 31 0 29 2;
#X connect 32 0 44 0;
#X connect 32 0 55 0;
#X connect 32 1 55 1;
#X connect 32 2 34 0;
#X connect 33 0 36 0;
#X connect 34 0 33 0;
#X connect 34 1 33 1;
#X connect 35 0 36 1;
#X connect 35 0 37 1;
#X connect 35 0 37 2;
#X connect 36 0 37 0;
#X connect 37 0 51 0;
#X connect 38 0 40 0;
#X connect 39 0 52 0;
#X connect 40 0 39 0;
#X connect 53 0 21 1;
#X connect 53 0 20 1;
#X connect 53 0 20 2;
#X connect 54 0 40 1;
#X connect 54 0 39 1;
#X connect 54 0 39 2;
#X connect 55 0 64 0;
#X connect 55 0 67 0;
#X connect 55 1 67 1;
#X connect 55 2 57 0;
#X connect 56 0 59 0;
#X connect 57 0 56 0;
#X connect 57 1 56 1;
#X connect 58 0 59 1;
#X connect 58 0 60 1;
#X connect 58 0 60 2;
#X connect 59 0 60 0;
#X connect 60 0 65 0;
#X connect 61 0 63 0;
#X connect 62 0 66 0;
#X connect 63 0 62 0;
#X connect 67 0 76 0;
#X connect 67 0 77 0;
#X connect 67 1 77 1;
#X connect 67 2 69 0;
#X connect 68 0 71 0;
#X connect 69 0 68 0;
#X connect 69 1 68 1;
#X connect 70 0 71 1;
#X connect 70 0 72 1;
#X connect 70 0 72 2;
#X connect 71 0 72 0;
#X connect 72 0 141 0;
#X connect 73 0 75 0;
#X connect 74 0 142 0;
#X connect 75 0 74 0;
#X connect 77 0 86 0;
#X connect 77 0 88 0;
#X connect 77 1 88 1;
#X connect 77 2 79 0;
#X connect 78 0 81 0;
#X connect 79 0 78 0;
#X connect 79 1 78 1;
#X connect 80 0 81 1;
#X connect 80 0 82 1;
#X connect 80 0 82 2;
#X connect 81 0 82 0;
#X connect 82 0 143 0;
#X connect 83 0 85 0;
#X connect 84 0 144 0;
#X connect 85 0 84 0;
#X connect 87 0 85 1;
#X connect 87 0 84 1;
#X connect 87 0 84 2;
#X connect 88 0 98 0;
#X connect 88 0 107 0;
#X connect 88 1 98 1;
#X connect 88 2 90 0;
#X connect 89 0 92 0;
#X connect 90 0 89 0;
#X connect 90 1 89 1;
#X connect 91 0 92 1;
#X connect 91 0 93 1;
#X connect 91 0 93 2;
#X connect 92 0 93 0;
#X connect 93 0 146 0;
#X connect 94 0 96 0;
#X connect 95 0 145 0;
#X connect 96 0 95 0;
#X connect 97 0 96 1;
#X connect 97 0 95 1;
#X connect 97 0 95 2;
#X connect 98 0 108 0;
#X connect 98 0 110 0;
#X connect 98 1 110 1;
#X connect 98 2 100 0;
#X connect 99 0 102 0;
#X connect 100 0 99 0;
#X connect 100 1 99 1;
#X connect 101 0 102 1;
#X connect 101 0 103 1;
#X connect 101 0 103 2;
#X connect 102 0 103 0;
#X connect 103 0 147 0;
#X connect 104 0 106 0;
#X connect 105 0 148 0;
#X connect 106 0 105 0;
#X connect 109 0 106 1;
#X connect 109 0 105 1;
#X connect 109 0 105 2;
#X connect 110 0 119 0;
#X connect 110 0 120 0;
#X connect 110 1 120 1;
#X connect 110 2 112 0;
#X connect 111 0 114 0;
#X connect 112 0 111 0;
#X connect 112 1 111 1;
#X connect 113 0 114 1;
#X connect 113 0 115 1;
#X connect 113 0 115 2;
#X connect 114 0 115 0;
#X connect 115 0 149 0;
#X connect 116 0 118 0;
#X connect 117 0 150 0;
#X connect 118 0 117 0;
#X connect 120 0 129 0;
#X connect 120 0 131 0;
#X connect 120 1 131 1;
#X connect 120 2 122 0;
#X connect 121 0 124 0;
#X connect 122 0 121 0;
#X connect 122 1 121 1;
#X connect 123 0 124 1;
#X connect 123 0 125 1;
#X connect 123 0 125 2;
#X connect 124 0 125 0;
#X connect 125 0 152 0;
#X connect 126 0 128 0;
#X connect 127 0 151 0;
#X connect 128 0 127 0;
#X connect 130 0 128 1;
#X connect 130 0 127 1;
#X connect 130 0 127 2;
#X connect 131 0 140 0;
#X connect 131 0 159 0;
#X connect 131 1 159 1;
#X connect 131 2 133 0;
#X connect 132 0 135 0;
#X connect 133 0 132 0;
#X connect 133 1 132 1;
#X connect 134 0 135 1;
#X connect 134 0 136 1;
#X connect 134 0 136 2;
#X connect 135 0 136 0;
#X connect 136 0 153 0;
#X connect 137 0 139 0;
#X connect 138 0 154 0;
#X connect 139 0 138 0;
#X connect 155 0 63 1;
#X connect 155 0 62 1;
#X connect 155 0 62 2;
#X connect 156 0 75 1;
#X connect 156 0 74 1;
#X connect 156 0 74 2;
#X connect 157 0 118 1;
#X connect 157 0 117 1;
#X connect 157 0 117 2;
#X connect 158 0 139 1;
#X connect 158 0 138 1;
#X connect 158 0 138 2;
#X connect 159 0 197 0;
#X connect 159 0 169 0;
#X connect 159 1 169 1;
#X connect 159 2 161 0;
#X connect 160 0 163 0;
#X connect 161 0 160 0;
#X connect 161 1 160 1;
#X connect 162 0 163 1;
#X connect 162 0 164 1;
#X connect 162 0 164 2;
#X connect 163 0 164 0;
#X connect 164 0 291 0;
#X connect 165 0 167 0;
#X connect 166 0 292 0;
#X connect 167 0 166 0;
#X connect 168 0 167 1;
#X connect 168 0 166 1;
#X connect 168 0 166 2;
#X connect 169 0 178 0;
#X connect 169 0 198 0;
#X connect 169 1 178 1;
#X connect 169 2 171 0;
#X connect 170 0 173 0;
#X connect 171 0 170 0;
#X connect 171 1 170 1;
#X connect 172 0 173 1;
#X connect 172 0 174 1;
#X connect 172 0 174 2;
#X connect 173 0 174 0;
#X connect 174 0 293 0;
#X connect 175 0 177 0;
#X connect 176 0 294 0;
#X connect 177 0 176 0;
#X connect 178 0 188 0;
#X connect 178 0 199 0;
#X connect 178 1 188 1;
#X connect 178 2 180 0;
#X connect 179 0 182 0;
#X connect 180 0 179 0;
#X connect 180 1 179 1;
#X connect 181 0 182 1;
#X connect 181 0 183 1;
#X connect 181 0 183 2;
#X connect 182 0 183 0;
#X connect 183 0 295 0;
#X connect 184 0 186 0;
#X connect 185 0 296 0;
#X connect 186 0 185 0;
#X connect 187 0 186 1;
#X connect 187 0 185 1;
#X connect 187 0 185 2;
#X connect 188 0 200 0;
#X connect 188 0 203 0;
#X connect 188 1 203 1;
#X connect 188 2 190 0;
#X connect 189 0 192 0;
#X connect 190 0 189 0;
#X connect 190 1 189 1;
#X connect 191 0 192 1;
#X connect 191 0 193 1;
#X connect 191 0 193 2;
#X connect 192 0 193 0;
#X connect 193 0 297 0;
#X connect 194 0 196 0;
#X connect 195 0 298 0;
#X connect 196 0 195 0;
#X connect 201 0 177 1;
#X connect 201 0 176 1;
#X connect 201 0 176 2;
#X connect 202 0 196 1;
#X connect 202 0 195 1;
#X connect 202 0 195 2;
#X connect 203 0 212 0;
#X connect 203 0 213 0;
#X connect 203 1 213 1;
#X connect 203 2 205 0;
#X connect 204 0 207 0;
#X connect 205 0 204 0;
#X connect 205 1 204 1;
#X connect 206 0 207 1;
#X connect 206 0 208 1;
#X connect 206 0 208 2;
#X connect 207 0 208 0;
#X connect 208 0 299 0;
#X connect 209 0 211 0;
#X connect 210 0 300 0;
#X connect 211 0 210 0;
#X connect 213 0 222 0;
#X connect 213 0 223 0;
#X connect 213 1 223 1;
#X connect 213 2 215 0;
#X connect 214 0 217 0;
#X connect 215 0 214 0;
#X connect 215 1 214 1;
#X connect 216 0 217 1;
#X connect 216 0 218 1;
#X connect 216 0 218 2;
#X connect 217 0 218 0;
#X connect 218 0 301 0;
#X connect 219 0 221 0;
#X connect 220 0 302 0;
#X connect 221 0 220 0;
#X connect 223 0 232 0;
#X connect 223 0 234 0;
#X connect 223 1 234 1;
#X connect 223 2 225 0;
#X connect 224 0 227 0;
#X connect 225 0 224 0;
#X connect 225 1 224 1;
#X connect 226 0 227 1;
#X connect 226 0 228 1;
#X connect 226 0 228 2;
#X connect 227 0 228 0;
#X connect 228 0 304 0;
#X connect 229 0 231 0;
#X connect 230 0 303 0;
#X connect 231 0 230 0;
#X connect 233 0 231 1;
#X connect 233 0 230 1;
#X connect 233 0 230 2;
#X connect 234 0 244 0;
#X connect 234 0 253 0;
#X connect 234 1 244 1;
#X connect 234 2 236 0;
#X connect 235 0 238 0;
#X connect 236 0 235 0;
#X connect 236 1 235 1;
#X connect 237 0 238 1;
#X connect 237 0 239 1;
#X connect 237 0 239 2;
#X connect 238 0 239 0;
#X connect 239 0 305 0;
#X connect 240 0 242 0;
#X connect 241 0 306 0;
#X connect 242 0 241 0;
#X connect 243 0 242 1;
#X connect 243 0 241 1;
#X connect 243 0 241 2;
#X connect 244 0 254 0;
#X connect 244 0 256 0;
#X connect 244 1 256 1;
#X connect 244 2 246 0;
#X connect 245 0 248 0;
#X connect 246 0 245 0;
#X connect 246 1 245 1;
#X connect 247 0 248 1;
#X connect 247 0 249 1;
#X connect 247 0 249 2;
#X connect 248 0 249 0;
#X connect 249 0 308 0;
#X connect 250 0 252 0;
#X connect 251 0 307 0;
#X connect 252 0 251 0;
#X connect 255 0 252 1;
#X connect 255 0 251 1;
#X connect 255 0 251 2;
#X connect 256 0 265 0;
#X connect 256 0 266 0;
#X connect 256 1 266 1;
#X connect 256 2 258 0;
#X connect 257 0 260 0;
#X connect 258 0 257 0;
#X connect 258 1 257 1;
#X connect 259 0 260 1;
#X connect 259 0 261 1;
#X connect 259 0 261 2;
#X connect 260 0 261 0;
#X connect 261 0 309 0;
#X connect 262 0 264 0;
#X connect 263 0 310 0;
#X connect 264 0 263 0;
#X connect 266 0 275 0;
#X connect 266 0 277 0;
#X connect 266 1 277 1;
#X connect 266 2 268 0;
#X connect 267 0 270 0;
#X connect 268 0 267 0;
#X connect 268 1 267 1;
#X connect 269 0 270 1;
#X connect 269 0 271 1;
#X connect 269 0 271 2;
#X connect 270 0 271 0;
#X connect 271 0 312 0;
#X connect 272 0 274 0;
#X connect 273 0 311 0;
#X connect 274 0 273 0;
#X connect 276 0 274 1;
#X connect 276 0 273 1;
#X connect 276 0 273 2;
#X connect 277 0 286 0;
#X connect 277 0 315 0;
#X connect 277 1 315 1;
#X connect 277 2 279 0;
#X connect 278 0 281 0;
#X connect 279 0 278 0;
#X connect 279 1 278 1;
#X connect 280 0 281 1;
#X connect 280 0 282 1;
#X connect 280 0 282 2;
#X connect 281 0 282 0;
#X connect 282 0 313 0;
#X connect 283 0 285 0;
#X connect 284 0 314 0;
#X connect 285 0 284 0;
#X connect 287 0 211 1;
#X connect 287 0 210 1;
#X connect 287 0 210 2;
#X connect 288 0 221 1;
#X connect 288 0 220 1;
#X connect 288 0 220 2;
#X connect 289 0 264 1;
#X connect 289 0 263 1;
#X connect 289 0 263 2;
#X connect 290 0 285 1;
#X connect 290 0 284 1;
#X connect 290 0 284 2;
#X connect 315 0 353 0;
#X connect 315 0 325 0;
#X connect 315 1 325 1;
#X connect 315 2 317 0;
#X connect 316 0 319 0;
#X connect 317 0 316 0;
#X connect 317 1 316 1;
#X connect 318 0 319 1;
#X connect 318 0 320 1;
#X connect 318 0 320 2;
#X connect 319 0 320 0;
#X connect 320 0 579 0;
#X connect 321 0 323 0;
#X connect 322 0 580 0;
#X connect 323 0 322 0;
#X connect 324 0 323 1;
#X connect 324 0 322 1;
#X connect 324 0 322 2;
#X connect 325 0 334 0;
#X connect 325 0 354 0;
#X connect 325 1 334 1;
#X connect 325 2 327 0;
#X connect 326 0 329 0;
#X connect 327 0 326 0;
#X connect 327 1 326 1;
#X connect 328 0 329 1;
#X connect 328 0 330 1;
#X connect 328 0 330 2;
#X connect 329 0 330 0;
#X connect 330 0 581 0;
#X connect 331 0 333 0;
#X connect 332 0 582 0;
#X connect 333 0 332 0;
#X connect 334 0 344 0;
#X connect 334 0 355 0;
#X connect 334 1 344 1;
#X connect 334 2 336 0;
#X connect 335 0 338 0;
#X connect 336 0 335 0;
#X connect 336 1 335 1;
#X connect 337 0 338 1;
#X connect 337 0 339 1;
#X connect 337 0 339 2;
#X connect 338 0 339 0;
#X connect 339 0 584 0;
#X connect 340 0 342 0;
#X connect 341 0 583 0;
#X connect 342 0 341 0;
#X connect 343 0 342 1;
#X connect 343 0 341 1;
#X connect 343 0 341 2;
#X connect 344 0 356 0;
#X connect 344 0 359 0;
#X connect 344 1 359 1;
#X connect 344 2 346 0;
#X connect 345 0 348 0;
#X connect 346 0 345 0;
#X connect 346 1 345 1;
#X connect 347 0 348 1;
#X connect 347 0 349 1;
#X connect 347 0 349 2;
#X connect 348 0 349 0;
#X connect 349 0 585 0;
#X connect 350 0 352 0;
#X connect 351 0 586 0;
#X connect 352 0 351 0;
#X connect 357 0 333 1;
#X connect 357 0 332 1;
#X connect 357 0 332 2;
#X connect 358 0 352 1;
#X connect 358 0 351 1;
#X connect 358 0 351 2;
#X connect 359 0 368 0;
#X connect 359 0 369 0;
#X connect 359 1 369 1;
#X connect 359 2 361 0;
#X connect 360 0 363 0;
#X connect 361 0 360 0;
#X connect 361 1 360 1;
#X connect 362 0 363 1;
#X connect 362 0 364 1;
#X connect 362 0 364 2;
#X connect 363 0 364 0;
#X connect 364 0 588 0;
#X connect 365 0 367 0;
#X connect 366 0 587 0;
#X connect 367 0 366 0;
#X connect 369 0 378 0;
#X connect 369 0 379 0;
#X connect 369 1 379 1;
#X connect 369 2 371 0;
#X connect 370 0 373 0;
#X connect 371 0 370 0;
#X connect 371 1 370 1;
#X connect 372 0 373 1;
#X connect 372 0 374 1;
#X connect 372 0 374 2;
#X connect 373 0 374 0;
#X connect 374 0 589 0;
#X connect 375 0 377 0;
#X connect 376 0 590 0;
#X connect 377 0 376 0;
#X connect 379 0 388 0;
#X connect 379 0 390 0;
#X connect 379 1 390 1;
#X connect 379 2 381 0;
#X connect 380 0 383 0;
#X connect 381 0 380 0;
#X connect 381 1 380 1;
#X connect 382 0 383 1;
#X connect 382 0 384 1;
#X connect 382 0 384 2;
#X connect 383 0 384 0;
#X connect 384 0 592 0;
#X connect 385 0 387 0;
#X connect 386 0 591 0;
#X connect 387 0 386 0;
#X connect 389 0 387 1;
#X connect 389 0 386 1;
#X connect 389 0 386 2;
#X connect 390 0 400 0;
#X connect 390 0 409 0;
#X connect 390 1 400 1;
#X connect 390 2 392 0;
#X connect 391 0 394 0;
#X connect 392 0 391 0;
#X connect 392 1 391 1;
#X connect 393 0 394 1;
#X connect 393 0 395 1;
#X connect 393 0 395 2;
#X connect 394 0 395 0;
#X connect 395 0 593 0;
#X connect 396 0 398 0;
#X connect 397 0 594 0;
#X connect 398 0 397 0;
#X connect 399 0 398 1;
#X connect 399 0 397 1;
#X connect 399 0 397 2;
#X connect 400 0 410 0;
#X connect 400 0 412 0;
#X connect 400 1 412 1;
#X connect 400 2 402 0;
#X connect 401 0 404 0;
#X connect 402 0 401 0;
#X connect 402 1 401 1;
#X connect 403 0 404 1;
#X connect 403 0 405 1;
#X connect 403 0 405 2;
#X connect 404 0 405 0;
#X connect 405 0 596 0;
#X connect 406 0 408 0;
#X connect 407 0 595 0;
#X connect 408 0 407 0;
#X connect 411 0 408 1;
#X connect 411 0 407 1;
#X connect 411 0 407 2;
#X connect 412 0 421 0;
#X connect 412 0 422 0;
#X connect 412 1 422 1;
#X connect 412 2 414 0;
#X connect 413 0 416 0;
#X connect 414 0 413 0;
#X connect 414 1 413 1;
#X connect 415 0 416 1;
#X connect 415 0 417 1;
#X connect 415 0 417 2;
#X connect 416 0 417 0;
#X connect 417 0 597 0;
#X connect 418 0 420 0;
#X connect 419 0 598 0;
#X connect 420 0 419 0;
#X connect 422 0 431 0;
#X connect 422 0 433 0;
#X connect 422 1 433 1;
#X connect 422 2 424 0;
#X connect 423 0 426 0;
#X connect 424 0 423 0;
#X connect 424 1 423 1;
#X connect 425 0 426 1;
#X connect 425 0 427 1;
#X connect 425 0 427 2;
#X connect 426 0 427 0;
#X connect 427 0 600 0;
#X connect 428 0 430 0;
#X connect 429 0 599 0;
#X connect 430 0 429 0;
#X connect 432 0 430 1;
#X connect 432 0 429 1;
#X connect 432 0 429 2;
#X connect 433 0 442 0;
#X connect 433 0 447 0;
#X connect 433 1 447 1;
#X connect 433 2 435 0;
#X connect 434 0 437 0;
#X connect 435 0 434 0;
#X connect 435 1 434 1;
#X connect 436 0 437 1;
#X connect 436 0 438 1;
#X connect 436 0 438 2;
#X connect 437 0 438 0;
#X connect 438 0 601 0;
#X connect 439 0 441 0;
#X connect 440 0 602 0;
#X connect 441 0 440 0;
#X connect 443 0 367 1;
#X connect 443 0 366 1;
#X connect 443 0 366 2;
#X connect 444 0 377 1;
#X connect 444 0 376 1;
#X connect 444 0 376 2;
#X connect 445 0 420 1;
#X connect 445 0 419 1;
#X connect 445 0 419 2;
#X connect 446 0 441 1;
#X connect 446 0 440 1;
#X connect 446 0 440 2;
#X connect 447 0 485 0;
#X connect 447 0 457 0;
#X connect 447 1 457 1;
#X connect 447 2 449 0;
#X connect 448 0 451 0;
#X connect 449 0 448 0;
#X connect 449 1 448 1;
#X connect 450 0 451 1;
#X connect 450 0 452 1;
#X connect 450 0 452 2;
#X connect 451 0 452 0;
#X connect 452 0 603 0;
#X connect 453 0 455 0;
#X connect 454 0 604 0;
#X connect 455 0 454 0;
#X connect 456 0 455 1;
#X connect 456 0 454 1;
#X connect 456 0 454 2;
#X connect 457 0 466 0;
#X connect 457 0 486 0;
#X connect 457 1 466 1;
#X connect 457 2 459 0;
#X connect 458 0 461 0;
#X connect 459 0 458 0;
#X connect 459 1 458 1;
#X connect 460 0 461 1;
#X connect 460 0 462 1;
#X connect 460 0 462 2;
#X connect 461 0 462 0;
#X connect 462 0 606 0;
#X connect 463 0 465 0;
#X connect 464 0 605 0;
#X connect 465 0 464 0;
#X connect 466 0 476 0;
#X connect 466 0 487 0;
#X connect 466 1 476 1;
#X connect 466 2 468 0;
#X connect 467 0 470 0;
#X connect 468 0 467 0;
#X connect 468 1 467 1;
#X connect 469 0 470 1;
#X connect 469 0 471 1;
#X connect 469 0 471 2;
#X connect 470 0 471 0;
#X connect 471 0 607 0;
#X connect 472 0 474 0;
#X connect 473 0 608 0;
#X connect 474 0 473 0;
#X connect 475 0 474 1;
#X connect 475 0 473 1;
#X connect 475 0 473 2;
#X connect 476 0 488 0;
#X connect 476 0 491 0;
#X connect 476 1 491 1;
#X connect 476 2 478 0;
#X connect 477 0 480 0;
#X connect 478 0 477 0;
#X connect 478 1 477 1;
#X connect 479 0 480 1;
#X connect 479 0 481 1;
#X connect 479 0 481 2;
#X connect 480 0 481 0;
#X connect 481 0 609 0;
#X connect 482 0 484 0;
#X connect 483 0 610 0;
#X connect 484 0 483 0;
#X connect 489 0 465 1;
#X connect 489 0 464 1;
#X connect 489 0 464 2;
#X connect 490 0 484 1;
#X connect 490 0 483 1;
#X connect 490 0 483 2;
#X connect 491 0 500 0;
#X connect 491 0 501 0;
#X connect 491 1 501 1;
#X connect 491 2 493 0;
#X connect 492 0 495 0;
#X connect 493 0 492 0;
#X connect 493 1 492 1;
#X connect 494 0 495 1;
#X connect 494 0 496 1;
#X connect 494 0 496 2;
#X connect 495 0 496 0;
#X connect 496 0 612 0;
#X connect 497 0 499 0;
#X connect 498 0 611 0;
#X connect 499 0 498 0;
#X connect 501 0 510 0;
#X connect 501 0 511 0;
#X connect 501 1 511 1;
#X connect 501 2 503 0;
#X connect 502 0 505 0;
#X connect 503 0 502 0;
#X connect 503 1 502 1;
#X connect 504 0 505 1;
#X connect 504 0 506 1;
#X connect 504 0 506 2;
#X connect 505 0 506 0;
#X connect 506 0 613 0;
#X connect 507 0 509 0;
#X connect 508 0 614 0;
#X connect 509 0 508 0;
#X connect 511 0 520 0;
#X connect 511 0 522 0;
#X connect 511 1 522 1;
#X connect 511 2 513 0;
#X connect 512 0 515 0;
#X connect 513 0 512 0;
#X connect 513 1 512 1;
#X connect 514 0 515 1;
#X connect 514 0 516 1;
#X connect 514 0 516 2;
#X connect 515 0 516 0;
#X connect 516 0 616 0;
#X connect 517 0 519 0;
#X connect 518 0 615 0;
#X connect 519 0 518 0;
#X connect 521 0 519 1;
#X connect 521 0 518 1;
#X connect 521 0 518 2;
#X connect 522 0 532 0;
#X connect 522 0 541 0;
#X connect 522 1 532 1;
#X connect 522 2 524 0;
#X connect 523 0 526 0;
#X connect 524 0 523 0;
#X connect 524 1 523 1;
#X connect 525 0 526 1;
#X connect 525 0 527 1;
#X connect 525 0 527 2;
#X connect 526 0 527 0;
#X connect 527 0 617 0;
#X connect 528 0 530 0;
#X connect 529 0 618 0;
#X connect 530 0 529 0;
#X connect 531 0 530 1;
#X connect 531 0 529 1;
#X connect 531 0 529 2;
#X connect 532 0 542 0;
#X connect 532 0 544 0;
#X connect 532 1 544 1;
#X connect 532 2 534 0;
#X connect 533 0 536 0;
#X connect 534 0 533 0;
#X connect 534 1 533 1;
#X connect 535 0 536 1;
#X connect 535 0 537 1;
#X connect 535 0 537 2;
#X connect 536 0 537 0;
#X connect 537 0 620 0;
#X connect 538 0 540 0;
#X connect 539 0 619 0;
#X connect 540 0 539 0;
#X connect 543 0 540 1;
#X connect 543 0 539 1;
#X connect 543 0 539 2;
#X connect 544 0 553 0;
#X connect 544 0 554 0;
#X connect 544 1 554 1;
#X connect 544 2 546 0;
#X connect 545 0 548 0;
#X connect 546 0 545 0;
#X connect 546 1 545 1;
#X connect 547 0 548 1;
#X connect 547 0 549 1;
#X connect 547 0 549 2;
#X connect 548 0 549 0;
#X connect 549 0 621 0;
#X connect 550 0 552 0;
#X connect 551 0 622 0;
#X connect 552 0 551 0;
#X connect 554 0 563 0;
#X connect 554 0 565 0;
#X connect 554 1 565 1;
#X connect 554 2 556 0;
#X connect 555 0 558 0;
#X connect 556 0 555 0;
#X connect 556 1 555 1;
#X connect 557 0 558 1;
#X connect 557 0 559 1;
#X connect 557 0 559 2;
#X connect 558 0 559 0;
#X connect 559 0 624 0;
#X connect 560 0 562 0;
#X connect 561 0 623 0;
#X connect 562 0 561 0;
#X connect 564 0 562 1;
#X connect 564 0 561 1;
#X connect 564 0 561 2;
#X connect 565 0 574 0;
#X connect 565 0 627 0;
#X connect 565 1 627 1;
#X connect 565 2 567 0;
#X connect 566 0 569 0;
#X connect 567 0 566 0;
#X connect 567 1 566 1;
#X connect 568 0 569 1;
#X connect 568 0 570 1;
#X connect 568 0 570 2;
#X connect 569 0 570 0;
#X connect 570 0 625 0;
#X connect 571 0 573 0;
#X connect 572 0 626 0;
#X connect 573 0 572 0;
#X connect 575 0 499 1;
#X connect 575 0 498 1;
#X connect 575 0 498 2;
#X connect 576 0 509 1;
#X connect 576 0 508 1;
#X connect 576 0 508 2;
#X connect 577 0 552 1;
#X connect 577 0 551 1;
#X connect 577 0 551 2;
#X connect 578 0 573 1;
#X connect 578 0 572 1;
#X connect 578 0 572 2;
#X connect 627 0 665 0;
#X connect 627 0 637 0;
#X connect 627 1 637 1;
#X connect 627 2 629 0;
#X connect 628 0 631 0;
#X connect 629 0 628 0;
#X connect 629 1 628 1;
#X connect 630 0 631 1;
#X connect 630 0 632 1;
#X connect 630 0 632 2;
#X connect 631 0 632 0;
#X connect 632 0 759 0;
#X connect 633 0 635 0;
#X connect 634 0 760 0;
#X connect 635 0 634 0;
#X connect 636 0 635 1;
#X connect 636 0 634 1;
#X connect 636 0 634 2;
#X connect 637 0 646 0;
#X connect 637 0 666 0;
#X connect 637 1 646 1;
#X connect 637 2 639 0;
#X connect 638 0 641 0;
#X connect 639 0 638 0;
#X connect 639 1 638 1;
#X connect 640 0 641 1;
#X connect 640 0 642 1;
#X connect 640 0 642 2;
#X connect 641 0 642 0;
#X connect 642 0 762 0;
#X connect 643 0 645 0;
#X connect 644 0 761 0;
#X connect 645 0 644 0;
#X connect 646 0 656 0;
#X connect 646 0 667 0;
#X connect 646 1 656 1;
#X connect 646 2 648 0;
#X connect 647 0 650 0;
#X connect 648 0 647 0;
#X connect 648 1 647 1;
#X connect 649 0 650 1;
#X connect 649 0 651 1;
#X connect 649 0 651 2;
#X connect 650 0 651 0;
#X connect 651 0 763 0;
#X connect 652 0 654 0;
#X connect 653 0 764 0;
#X connect 654 0 653 0;
#X connect 655 0 654 1;
#X connect 655 0 653 1;
#X connect 655 0 653 2;
#X connect 656 0 668 0;
#X connect 656 0 671 0;
#X connect 656 1 671 1;
#X connect 656 2 658 0;
#X connect 657 0 660 0;
#X connect 658 0 657 0;
#X connect 658 1 657 1;
#X connect 659 0 660 1;
#X connect 659 0 661 1;
#X connect 659 0 661 2;
#X connect 660 0 661 0;
#X connect 661 0 765 0;
#X connect 662 0 664 0;
#X connect 663 0 766 0;
#X connect 664 0 663 0;
#X connect 669 0 645 1;
#X connect 669 0 644 1;
#X connect 669 0 644 2;
#X connect 670 0 664 1;
#X connect 670 0 663 1;
#X connect 670 0 663 2;
#X connect 671 0 680 0;
#X connect 671 0 681 0;
#X connect 671 1 681 1;
#X connect 671 2 673 0;
#X connect 672 0 675 0;
#X connect 673 0 672 0;
#X connect 673 1 672 1;
#X connect 674 0 675 1;
#X connect 674 0 676 1;
#X connect 674 0 676 2;
#X connect 675 0 676 0;
#X connect 676 0 768 0;
#X connect 677 0 679 0;
#X connect 678 0 767 0;
#X connect 679 0 678 0;
#X connect 681 0 690 0;
#X connect 681 0 691 0;
#X connect 681 1 691 1;
#X connect 681 2 683 0;
#X connect 682 0 685 0;
#X connect 683 0 682 0;
#X connect 683 1 682 1;
#X connect 684 0 685 1;
#X connect 684 0 686 1;
#X connect 684 0 686 2;
#X connect 685 0 686 0;
#X connect 686 0 769 0;
#X connect 687 0 689 0;
#X connect 688 0 770 0;
#X connect 689 0 688 0;
#X connect 691 0 700 0;
#X connect 691 0 702 0;
#X connect 691 1 702 1;
#X connect 691 2 693 0;
#X connect 692 0 695 0;
#X connect 693 0 692 0;
#X connect 693 1 692 1;
#X connect 694 0 695 1;
#X connect 694 0 696 1;
#X connect 694 0 696 2;
#X connect 695 0 696 0;
#X connect 696 0 771 0;
#X connect 697 0 699 0;
#X connect 698 0 772 0;
#X connect 699 0 698 0;
#X connect 701 0 699 1;
#X connect 701 0 698 1;
#X connect 701 0 698 2;
#X connect 702 0 712 0;
#X connect 702 0 721 0;
#X connect 702 1 712 1;
#X connect 702 2 704 0;
#X connect 703 0 706 0;
#X connect 704 0 703 0;
#X connect 704 1 703 1;
#X connect 705 0 706 1;
#X connect 705 0 707 1;
#X connect 705 0 707 2;
#X connect 706 0 707 0;
#X connect 707 0 773 0;
#X connect 708 0 710 0;
#X connect 709 0 774 0;
#X connect 710 0 709 0;
#X connect 711 0 710 1;
#X connect 711 0 709 1;
#X connect 711 0 709 2;
#X connect 712 0 722 0;
#X connect 712 0 724 0;
#X connect 712 1 724 1;
#X connect 712 2 714 0;
#X connect 713 0 716 0;
#X connect 714 0 713 0;
#X connect 714 1 713 1;
#X connect 715 0 716 1;
#X connect 715 0 717 1;
#X connect 715 0 717 2;
#X connect 716 0 717 0;
#X connect 717 0 776 0;
#X connect 718 0 720 0;
#X connect 719 0 775 0;
#X connect 720 0 719 0;
#X connect 723 0 720 1;
#X connect 723 0 719 1;
#X connect 723 0 719 2;
#X connect 724 0 733 0;
#X connect 724 0 734 0;
#X connect 724 1 734 1;
#X connect 724 2 726 0;
#X connect 725 0 728 0;
#X connect 726 0 725 0;
#X connect 726 1 725 1;
#X connect 727 0 728 1;
#X connect 727 0 729 1;
#X connect 727 0 729 2;
#X connect 728 0 729 0;
#X connect 729 0 777 0;
#X connect 730 0 732 0;
#X connect 731 0 778 0;
#X connect 732 0 731 0;
#X connect 734 0 743 0;
#X connect 734 0 745 0;
#X connect 734 1 745 1;
#X connect 734 2 736 0;
#X connect 735 0 738 0;
#X connect 736 0 735 0;
#X connect 736 1 735 1;
#X connect 737 0 738 1;
#X connect 737 0 739 1;
#X connect 737 0 739 2;
#X connect 738 0 739 0;
#X connect 739 0 779 0;
#X connect 740 0 742 0;
#X connect 741 0 780 0;
#X connect 742 0 741 0;
#X connect 744 0 742 1;
#X connect 744 0 741 1;
#X connect 744 0 741 2;
#X connect 745 0 754 0;
#X connect 745 0 783 0;
#X connect 745 1 783 1;
#X connect 745 2 747 0;
#X connect 746 0 749 0;
#X connect 747 0 746 0;
#X connect 747 1 746 1;
#X connect 748 0 749 1;
#X connect 748 0 750 1;
#X connect 748 0 750 2;
#X connect 749 0 750 0;
#X connect 750 0 782 0;
#X connect 751 0 753 0;
#X connect 752 0 781 0;
#X connect 753 0 752 0;
#X connect 755 0 679 1;
#X connect 755 0 678 1;
#X connect 755 0 678 2;
#X connect 756 0 689 1;
#X connect 756 0 688 1;
#X connect 756 0 688 2;
#X connect 757 0 732 1;
#X connect 757 0 731 1;
#X connect 757 0 731 2;
#X connect 758 0 753 1;
#X connect 758 0 752 1;
#X connect 758 0 752 2;
#X connect 783 0 792 0;
#X connect 783 2 785 0;
#X connect 784 0 787 0;
#X connect 785 0 784 0;
#X connect 785 1 784 1;
#X connect 786 0 787 1;
#X connect 786 0 788 1;
#X connect 786 0 788 2;
#X connect 787 0 788 0;
#X connect 788 0 794 0;
#X connect 789 0 791 0;
#X connect 790 0 795 0;
#X connect 791 0 790 0;
#X connect 793 0 791 1;
#X connect 793 0 790 1;
#X connect 793 0 790 2;
#X restore 484 26 pd keyboard;
#X obj 10 144 cnv 15 350 100 empty empty Inicialização_das_Cores_-_Teclado
20 12 0 14 -261682 -66577 0;
#X obj 34 210 s blackTheme;
#X obj 134 210 s whiteTheme;
#X obj 234 210 s pressedTheme;
#X obj 34 171 loadbang;
#X msg 34 188 2;
#X msg 134 186 0;
#X msg 234 186 14;
#X obj 536 280 outlet;
#X obj 536 257 mtof;
#X obj 852 263 outlet;
#X obj 852 238 r offSignal;
#X obj 536 234 spigot;
#X obj 543 200 t f f;
#X obj 496 380 bng 15 250 50 0 empty empty empty 17 7 0 10 -262144
-1 -1;
#X connect 1 0 4 1;
#X connect 2 0 3 0;
#X connect 2 1 1 0;
#X connect 2 2 0 0;
#X connect 3 0 4 0;
#X connect 4 0 5 0;
#X connect 4 0 99 0;
#X connect 5 0 10 0;
#X connect 6 0 9 0;
#X connect 7 0 8 0;
#X connect 7 1 6 1;
#X connect 8 0 6 0;
#X connect 10 0 7 0;
#X connect 10 1 12 0;
#X connect 11 0 13 0;
#X connect 12 0 11 0;
#X connect 12 1 11 1;
#X connect 14 0 9 0;
#X connect 90 0 91 0;
#X connect 90 0 92 0;
#X connect 90 0 93 0;
#X connect 91 0 87 0;
#X connect 92 0 88 0;
#X connect 93 0 89 0;
#X connect 95 0 94 0;
#X connect 97 0 96 0;
#X connect 98 0 95 0;
#X connect 99 0 98 0;
#X connect 99 1 98 1;
#X connect 100 0 9 0;
#X coords 0 -1 1 1 580 100 1 10 10;
#X restore 229 255 pd MIvDI_controllerv;
#X floatatom 620 271 5 0 0 0 - - -, f 5;
#X text 583 271 MIDI;
#X floatatom 742 271 5 0 0 0 - - -, f 5;
#X obj 742 140 ftom;
#X text 663 271 Frequência;
#X obj 620 155 expr if($f1>0 \, $f1 \, 0);
#N canvas 1912 50 1920 997 MIDIFileReader 0;
#X obj 82 66 inlet;
#X obj 161 66 inlet;
#X obj 987 89 inlet;
#X obj 161 552 mtof;
#X obj 161 419 midiparse;
#X obj 161 315 seq;
#X msg 193 284 read \$1;
#X obj 161 219 t b s;
#X msg 987 300 stop;
#X obj 82 158 openpanel;
#X symbolatom 161 173 60 0 0 0 - - -, f 60;
#X msg 363 473 0;
#X floatatom 90 434 5 0 0 0 - - -, f 5;
#X obj 161 460 unpack;
#X obj 161 510 stripnote;
#X obj 161 606 outlet;
#X floatatom 114 531 5 0 0 0 - - -, f 5;
#X floatatom 161 572 5 0 0 0 - - -, f 5;
#X obj 726 136 f;
#X msg 895 300 pause;
#X msg 895 121 1;
#X obj 726 168 expr if($f1 == 1 \, 1 \, 0) \; if($f1 == 0 \, 1 \, 0)
;
#X obj 662 235 spigot;
#X obj 662 194 t b f;
#X obj 895 234 spigot;
#X obj 895 194 t b f;
#X obj 662 95 loadbang;
#X msg 662 300 continue;
#X obj 726 56 inlet;
#X obj 227 234 s musicOn;
#X obj 798 79 r musicOn;
#X obj 363 521 s musicOff;
#X obj 1016 133 s musicOff;
#X floatatom 761 155 5 0 0 0 - - -, f 5;
#X msg 798 100 1;
#X obj 537 185 outlet;
#X obj 690 499 outlet;
#X obj 690 462 r musicOff;
#X msg 662 121 0;
#X connect 0 0 9 0;
#X connect 1 0 10 0;
#X connect 2 0 8 0;
#X connect 2 0 32 0;
#X connect 3 0 15 0;
#X connect 3 0 17 0;
#X connect 4 0 12 0;
#X connect 4 0 13 0;
#X connect 5 0 4 0;
#X connect 5 1 11 0;
#X connect 6 0 5 0;
#X connect 7 0 5 0;
#X connect 7 0 29 0;
#X connect 7 1 6 0;
#X connect 8 0 5 0;
#X connect 9 0 10 0;
#X connect 10 0 7 0;
#X connect 10 0 35 0;
#X connect 11 0 15 0;
#X connect 11 0 31 0;
#X connect 13 0 14 0;
#X connect 13 1 14 1;
#X connect 14 0 3 0;
#X connect 14 0 16 0;
#X connect 18 0 21 0;
#X connect 18 0 33 0;
#X connect 19 0 5 0;
#X connect 20 0 18 1;
#X connect 21 0 23 0;
#X connect 21 1 25 0;
#X connect 22 0 27 0;
#X connect 22 0 38 0;
#X connect 23 0 22 0;
#X connect 23 1 22 1;
#X connect 24 0 20 0;
#X connect 24 0 19 0;
#X connect 25 0 24 0;
#X connect 25 1 24 1;
#X connect 26 0 38 0;
#X connect 27 0 5 0;
#X connect 28 0 18 0;
#X connect 30 0 34 0;
#X connect 34 0 18 0;
#X connect 37 0 36 0;
#X connect 38 0 18 1;
#X restore 995 362 pd MIDIFileReader;
#X obj 933 329 bng 15 250 50 0 empty empty New -3 -7 0 10 -159808 -1
-1;
#X obj 1013 329 bng 15 250 50 0 empty empty Repeat -13 -7 0 10 -260097
-1 -1;
#X obj 1173 329 bng 15 250 50 0 empty empty Stop -7 -7 0 10 -258113
-1 -1;
#X obj 1093 329 bng 15 250 50 0 empty empty Play/Pause -25 -7 0 10
-4034 -1 -1;
#X symbolatom 864 287 60 0 0 0 - - -, f 60;
#X obj 835 201 cnv 15 15 198 empty empty empty 20 12 0 14 -99865 -66577
0;
#X obj 864 151 loadbang;
#X msg 864 176 set C:/User/.../YourMIDIFile.mid;
#X obj 853 265 cnv 15 15 15 empty empty Now_Playing 20 12 0 14 -262144
-33289 0;
#X obj 929 382 s MIDIFileFreq;
#X obj 879 443 r MIDIFileFreq;
#X obj 229 380 s MIDIControllerFreq;
#X obj 679 375 s MIDIControllerBang;
#X obj 1161 384 s MIDIFileBang;
#X obj 465 237 s choice;
#X obj 611 443 r MIDIControllerFreq;
#X obj 667 473 r MIDIControllerBang;
#X obj 932 473 r MIDIFileBang;
#X text 749 729 Freq;
#X text 808 729 Bang;
#X obj 761 529 r choice;
#X obj 478 135 loadbang;
#X msg 474 171 0;
#X connect 0 0 32 0;
#X connect 3 0 4 1;
#X connect 3 0 8 1;
#X connect 3 1 5 1;
#X connect 3 1 9 1;
#X connect 4 0 6 0;
#X connect 5 0 6 0;
#X connect 8 0 7 0;
#X connect 9 0 7 0;
#X connect 10 0 13 0;
#X connect 10 0 29 0;
#X connect 10 1 30 0;
#X connect 13 0 14 0;
#X connect 14 0 16 0;
#X connect 16 0 11 0;
#X connect 17 0 27 0;
#X connect 17 1 22 0;
#X connect 17 2 31 0;
#X connect 18 0 17 0;
#X connect 19 0 17 1;
#X connect 20 0 17 3;
#X connect 21 0 17 2;
#X connect 24 0 25 0;
#X connect 25 0 22 0;
#X connect 28 0 5 0;
#X connect 33 0 4 0;
#X connect 34 0 8 0;
#X connect 35 0 9 0;
#X connect 38 0 3 0;
#X connect 39 0 40 0;
#X connect 40 0 0 0;
#X coords 0 -1 1 1 1100 200 2 200 200;
#X restore 36 32 pd control;
#X obj 94 289 t b f;
#X text 60 46 Sinal;
#X floatatom 36 237 5 0 0 0 - - -, f 5;
#X connect 0 0 4 0;
#X connect 0 0 4 1;
#X connect 2 0 3 0;
#X connect 2 1 3 1;
#X connect 4 0 1 0;
#X connect 4 1 1 1;
#X connect 6 0 9 0;
#X connect 6 0 7 0;
#X connect 7 0 0 0;
#X connect 7 1 0 1;
#X coords 0 997 1 996 85 60 0;
