#N canvas -8 -8 1366 685 10;
#N canvas 676 50 681 676 ks 0;
#X obj 225 251 inlet;
#X obj 322 251 inlet;
#X obj 322 270 expr 1000/$f1;
#X obj 322 301 t f f;
#X obj 257 316 del;
#X obj 225 271 t b b;
#X msg 225 340 1;
#X msg 257 340 0;
#X obj 225 387 vline~;
#X obj 172 418 noise~;
#X obj 207 468 *~;
#X obj 206 515 +~;
#X obj 354 388 delread~ ksbuffer;
#X obj 355 431 fexpr~ 0.5*$x1[0]+0.5*$x1[-1];
#X obj 356 500 *~ 1;
#X obj 264 548 delwrite~ ksbuffer 2000;
#X obj 207 579 outlet~;
#X obj 508 51 block~ 1;
#X floatatom 377 488 8 0 0 0 - - -, f 8;
#X floatatom 419 285 5 0 0 0 - - -, f 5;
#X obj 419 301 expr $f1*44100/1000;
#X floatatom 419 321 5 0 0 0 - - -, f 5;
#X obj 377 473 expr 1 - ($f1/1000);
#X obj 101 101 cnv 15 118 98 empty empty empty 20 12 0 14 -204786 -66577
0;
#X obj 145 157 knob 32 32 10 1 0 0 empty empty empty 0 -8 0 8 3.96865e+007
3.96865e+007 3.96865e+007 1722 1;
#X floatatom 134 220 5 0 0 0 - - -, f 5;
#X text 110 106 Karplus-Strong;
#X text 138 132 Reverb;
#X obj 178 185 bng 15 250 50 0 empty empty empty 17 7 0 10 -4034 -1
-1;
#X msg 172 67 5;
#X obj 172 40 loadbang;
#X connect 0 0 5 0;
#X connect 1 0 2 0;
#X connect 2 0 3 0;
#X connect 2 0 19 0;
#X connect 3 0 4 1;
#X connect 3 1 12 0;
#X connect 4 0 7 0;
#X connect 5 0 6 0;
#X connect 5 1 4 0;
#X connect 6 0 8 0;
#X connect 7 0 8 0;
#X connect 8 0 10 1;
#X connect 9 0 10 0;
#X connect 10 0 11 0;
#X connect 11 0 16 0;
#X connect 11 0 15 0;
#X connect 12 0 13 0;
#X connect 13 0 14 0;
#X connect 14 0 11 1;
#X connect 18 0 14 1;
#X connect 19 0 20 0;
#X connect 20 0 21 0;
#X connect 22 0 18 0;
#X connect 24 0 25 0;
#X connect 24 0 22 0;
#X connect 28 0 29 0;
#X connect 29 0 24 0;
#X connect 30 0 29 0;
#X coords 0 -1 1 1 120 100 2 100 100;
#X restore 160 167 pd ks;
#X obj 276 51 hsl 256 30 0 127 0 0 empty empty Frequência_(MIDI) -2
-8 0 10 -262144 -1 -1 13854 1;
#X obj 160 97 bng 15 250 50 0 empty empty Note 17 7 0 10 -258113 -1
-1;
#X floatatom 281 81 5 0 0 0 - - -, f 5;
#N canvas 0 50 450 300 master 0;
#X obj 237 145 inlet~;
#X obj 51 51 cnv 15 98 98 empty empty empty 20 12 0 14 -261234 -66577
0;
#X obj 85 95 knob 32 32 0.01 1.01 1 0 empty empty empty 0 -8 0 8 3.96865e+007
3.96865e+007 3.96865e+007 2943 1;
#X obj 55 54 cnv 15 80 20 empty empty Master 20 12 0 14 -261234 -66577
0;
#X obj 243 243 dac~;
#X obj 163 130 - 0.01;
#X obj 220 205 *~;
#X obj 308 145 inlet~;
#X obj 291 205 *~;
#X floatatom 141 179 5 0 0 0 - - -, f 5;
#X obj 123 30 loadbang;
#X msg 123 78 0.8;
#X obj 121 115 bng 15 250 50 0 empty empty empty 17 7 0 10 -4034 -1
-1;
#X obj 298 45 r taxa_de_amostragem;
#X obj 298 68 block~;
#X connect 0 0 6 1;
#X connect 2 0 5 0;
#X connect 5 0 6 0;
#X connect 5 0 8 0;
#X connect 5 0 9 0;
#X connect 6 0 4 0;
#X connect 7 0 8 1;
#X connect 8 0 4 1;
#X connect 10 0 11 0;
#X connect 11 0 2 0;
#X connect 12 0 11 0;
#X connect 13 0 14 0;
#X coords 0 -1 1 1 100 100 2 50 50;
#X restore 58 515 pd master;
#N canvas 676 50 681 676 mixer 0;
#X obj 464 274 inlet~;
#X obj 446 300 *~;
#X obj 446 186 vsl 15 100 0 1 0 0 empty empty empty 0 -9 0 10 -262144
-1 -1 0 1;
#X obj 384 274 inlet~;
#X obj 366 300 *~;
#X obj 366 186 vsl 15 100 0 1 0 0 empty empty empty 0 -9 0 10 -262144
-1 -1 0 1;
#X obj 101 101 cnv 15 126 218 empty empty empty 20 12 0 14 -191407
-66577 0;
#X obj 114 112 vsl 20 200 0.01 1 1 0 empty empty empty 0 -9 0 10 -228856
-1 -1 0 1;
#X obj 146 280 knob 32 32 0 1 0 0 empty empty empty 0 -8 0 8 3.96865e+007
3.96865e+007 3.96865e+007 0 1;
#X obj 182 300 bng 15 250 50 0 empty empty empty 17 7 0 10 -4034 -1
-1;
#X obj 349 330 *~;
#X obj 348 353 outlet~;
#X obj 428 352 outlet~;
#X obj 429 330 *~;
#X obj 243 315 - 0.01;
#X obj 446 169 expr 1 - $f1;
#X msg 182 263 0.5;
#X floatatom 243 335 5 0 0 0 - - -, f 5;
#X connect 0 0 1 1;
#X connect 1 0 13 1;
#X connect 2 0 1 0;
#X connect 2 0 15 0;
#X connect 3 0 4 1;
#X connect 4 0 10 1;
#X connect 5 0 4 0;
#X connect 7 0 14 0;
#X connect 8 0 2 0;
#X connect 9 0 16 0;
#X connect 10 0 11 0;
#X connect 13 0 12 0;
#X connect 14 0 10 0;
#X connect 14 0 13 0;
#X connect 14 0 17 0;
#X connect 15 0 5 0;
#X connect 16 0 8 0;
#X coords 0 -1 1 1 128 220 1 100 100;
#X restore 1452 8 pd mixer;
#N canvas 0 50 450 300 master 0;
#X obj 237 145 inlet~;
#X obj 51 51 cnv 15 98 98 empty empty empty 20 12 0 14 -261234 -66577
0;
#X obj 85 95 knob 32 32 0.01 1.01 1 0 empty empty empty 0 -8 0 8 3.96865e+007
3.96865e+007 3.96865e+007 0 1;
#X obj 55 54 cnv 15 80 20 empty empty Master 20 12 0 14 -261234 -66577
0;
#X obj 243 243 dac~;
#X obj 163 130 - 0.01;
#X obj 220 205 *~;
#X obj 308 145 inlet~;
#X obj 291 205 *~;
#X floatatom 141 179 5 0 0 0 - - -, f 5;
#X connect 0 0 6 1;
#X connect 2 0 5 0;
#X connect 5 0 6 0;
#X connect 5 0 8 0;
#X connect 5 0 9 0;
#X connect 6 0 4 0;
#X connect 7 0 8 1;
#X connect 8 0 4 1;
#X coords 0 -1 1 1 100 100 2 50 50;
#X restore 1467 289 pd master;
#X text 331 86 69 = 440 = A4;
#X obj 273 104 expr ceil($f1);
#X obj 273 127 mtof;
#X obj 195 21 loadbang;
#X msg 229 36 69;
#N canvas 195 52 606 424 mixer 0;
#X obj 464 274 inlet~;
#X obj 446 300 *~;
#X obj 446 186 vsl 15 100 0 1 0 0 empty empty empty 0 -9 0 10 -262144
-1 -1 4950 1;
#X obj 384 274 inlet~;
#X obj 366 300 *~;
#X obj 366 186 vsl 15 100 0 1 0 0 empty empty empty 0 -9 0 10 -262144
-1 -1 4950 1;
#X obj 101 101 cnv 15 126 218 empty empty empty 20 12 0 14 -191407
-66577 0;
#X obj 114 112 vsl 20 200 0.01 1 1 0 empty empty empty 0 -9 0 10 -228856
-1 -1 18936 1;
#X obj 146 280 knob 32 32 0 1 0 0 empty empty empty 0 -8 0 8 3.96865e+007
3.96865e+007 3.96865e+007 1550 1;
#X obj 182 300 bng 15 250 50 0 empty empty empty 17 7 0 10 -4034 -1
-1;
#X obj 349 330 *~;
#X obj 348 353 outlet~;
#X obj 428 352 outlet~;
#X obj 429 330 *~;
#X obj 243 315 - 0.01;
#X obj 446 169 expr 1 - $f1;
#X msg 182 263 0.5;
#X floatatom 243 335 5 0 0 0 - - -, f 5;
#X obj 182 236 loadbang;
#X msg 182 95 0.8;
#X obj 278 105 r taxa_de_amostragem;
#X obj 278 128 block~;
#X connect 0 0 1 1;
#X connect 1 0 13 1;
#X connect 2 0 1 0;
#X connect 2 0 15 0;
#X connect 3 0 4 1;
#X connect 4 0 10 1;
#X connect 5 0 4 0;
#X connect 7 0 14 0;
#X connect 8 0 2 0;
#X connect 9 0 16 0;
#X connect 10 0 11 0;
#X connect 13 0 12 0;
#X connect 14 0 10 0;
#X connect 14 0 13 0;
#X connect 14 0 17 0;
#X connect 15 0 5 0;
#X connect 16 0 8 0;
#X connect 18 0 16 0;
#X connect 18 0 19 0;
#X connect 19 0 7 0;
#X connect 20 0 21 0;
#X coords 0 -1 1 1 128 220 1 100 100;
#X restore 159 296 pd mixer v;
#N canvas 354 217 681 367 settings 0;
#X obj 163 40 loadbang;
#X msg 163 60 4;
#X obj 101 101 cnv 15 298 148 empty empty empty 20 12 0 14 -262144
-66577 0;
#X obj 163 290 s tamanho_do_bloco;
#X obj 423 268 s taxa_de_amostragem;
#X obj 163 152 vradio 15 1 0 6 empty empty Tamanho_do_Bloco -47 -8
0 10 -228856 -1 -1 4;
#X text 180 152 64;
#X text 180 168 128;
#X text 180 183 256;
#X text 180 198 512;
#X text 180 213 1024;
#X text 180 228 2048;
#X obj 163 268 expr pow(2 \, $f1) * 64;
#X obj 101 111 cnv 15 150 20 empty empty Configurações 20 12 0 14
-262144 -66577 0;
#X obj 303 55 samplerate~;
#X obj 303 152 vradio 15 1 0 6 empty empty Taxa_de_Amostragem -47 -8
0 10 -228856 -1 -1 4;
#X text 320 213 44100;
#X text 320 228 88200;
#X text 320 198 22050;
#X text 320 183 11025;
#X text 320 168 5512.5;
#X text 320 152 2756.25;
#X obj 303 100 expr log($f1/2756.25) / log(2);
#X obj 303 115 expr if ($f1 > 0 \, floor($f1) \, 4);
#X obj 423 242 expr pow(2 \, $f1) * 2756.25;
#X connect 0 0 1 0;
#X connect 0 0 14 0;
#X connect 1 0 5 0;
#X connect 5 0 12 0;
#X connect 12 0 3 0;
#X connect 14 0 22 0;
#X connect 15 0 24 0;
#X connect 22 0 23 0;
#X connect 23 0 15 0;
#X connect 24 0 4 0;
#X coords 0 -1 1 1 300 150 2 100 100;
#X restore 1041 23 pd settings;
#N canvas 0 50 1366 685 synthesis 0;
#N canvas 676 50 681 676 ks 0;
#X obj 225 251 inlet;
#X obj 322 251 inlet;
#X obj 322 270 expr 1000/$f1;
#X obj 322 301 t f f;
#X obj 257 316 del;
#X obj 225 271 t b b;
#X msg 225 340 1;
#X msg 257 340 0;
#X obj 225 387 vline~;
#X obj 172 418 noise~;
#X obj 207 468 *~;
#X obj 206 515 +~;
#X obj 354 388 delread~ ksbuffer;
#X obj 355 431 fexpr~ 0.5*$x1[0]+0.5*$x1[-1];
#X obj 356 500 *~ 1;
#X obj 264 548 delwrite~ ksbuffer 2000;
#X obj 207 579 outlet~;
#X obj 508 51 block~ 1;
#X floatatom 377 488 8 0 0 0 - - -, f 8;
#X floatatom 419 285 5 0 0 0 - - -, f 5;
#X obj 419 301 expr $f1*44100/1000;
#X floatatom 419 321 5 0 0 0 - - -, f 5;
#X obj 377 473 expr 1 - ($f1/1000);
#X obj 101 101 cnv 15 118 98 empty empty empty 20 12 0 14 -204786 -66577
0;
#X obj 145 157 knob 32 32 10 1 0 0 empty empty empty 0 -8 0 8 3.96865e+007
3.96865e+007 3.96865e+007 1722 1;
#X floatatom 134 220 5 0 0 0 - - -, f 5;
#X text 110 106 Karplus-Strong;
#X text 138 132 Reverb;
#X obj 178 185 bng 15 250 50 0 empty empty empty 17 7 0 10 -4034 -1
-1;
#X msg 172 67 5;
#X obj 172 40 loadbang;
#X connect 0 0 5 0;
#X connect 1 0 2 0;
#X connect 2 0 3 0;
#X connect 2 0 19 0;
#X connect 3 0 4 1;
#X connect 3 1 12 0;
#X connect 4 0 7 0;
#X connect 5 0 6 0;
#X connect 5 1 4 0;
#X connect 6 0 8 0;
#X connect 7 0 8 0;
#X connect 8 0 10 1;
#X connect 9 0 10 0;
#X connect 10 0 11 0;
#X connect 11 0 16 0;
#X connect 11 0 15 0;
#X connect 12 0 13 0;
#X connect 13 0 14 0;
#X connect 14 0 11 1;
#X connect 18 0 14 1;
#X connect 19 0 20 0;
#X connect 20 0 21 0;
#X connect 22 0 18 0;
#X connect 24 0 25 0;
#X connect 24 0 22 0;
#X connect 28 0 29 0;
#X connect 29 0 24 0;
#X connect 30 0 29 0;
#X coords 0 -1 1 1 120 100 2 100 100;
#X restore 162 272 pd ks;
#X obj 278 156 hsl 256 30 0 127 0 0 empty empty Frequência_(MIDI)
-2 -8 0 10 -262144 -1 -1 13854 1;
#X obj 162 202 bng 15 250 50 0 empty empty Note 17 7 0 10 -258113 -1
-1;
#X floatatom 283 186 5 0 0 0 - - -, f 5;
#X text 333 191 69 = 440 = A4;
#X obj 275 209 expr ceil($f1);
#X obj 275 232 mtof;
#X obj 197 126 loadbang;
#X msg 231 141 69;
#X obj 413 298 zexy;
#X connect 1 0 3 0;
#X connect 1 0 5 0;
#X connect 2 0 0 0;
#X connect 5 0 6 0;
#X connect 6 0 0 1;
#X connect 7 0 8 0;
#X connect 8 0 1 0;
#X coords 0 -1 1 1 500 200 2 100 100;
#X restore 754 251 pd synthesis;
#N canvas -8 -8 1366 685 control 0;
#N canvas -8 -8 1366 685 MIDI_controller 0;
#X obj 11 11 cnv 15 198 198 empty empty empty 20 12 0 14 -233017 -66577
0;
#X floatatom 678 60 0 0 0 0 - - -;
#X floatatom 642 60 0 0 0 0 - - -;
#X obj 606 32 notein;
#X floatatom 606 60 0 0 0 0 - - -;
#X obj 606 92 expr if($f2 > 0 \, $f1 \, 0);
#X floatatom 606 112 5 0 0 0 - - -, f 5;
#X obj 301 49 vsl 15 128 0 127 0 0 empty 1 empty 0 -9 0 10 -262144
-1 -1 0 1;
#X obj 552 275 spigot;
#X floatatom 599 219 5 0 0 0 - - -, f 5;
#X obj 552 196 t b f;
#X msg 552 237 bang;
#X obj 552 311 s offSignal;
#X obj 599 170 expr if($f1 == 0 \, 1 \, 0) \; if($f1 > 0 \, $f1 \,
0);
#X floatatom 765 219 5 0 0 0 - - -, f 5;
#X obj 765 274 spigot;
#X obj 765 241 t f f;
#X obj 765 309 s onSignal;
#X obj 264 323 r offSignal;
#X obj 113 326 r onSignal;
#X obj 113 346 print;
#X obj 264 343 print;
#X obj 443 354 osc~;
#X obj 443 324 mtof;
#X obj 451 302 r o;
#X obj 505 513 s blackTheme;
#X obj 605 513 s whiteTheme;
#X obj 705 513 s pressedTheme;
#X msg 212 542 \; tag color \$2 \$3 \$4;
#X obj 505 474 loadbang;
#X obj 105 508 expr if($f1 == );
#X obj 935 55 r onSignal;
#X obj 911 107 t f b;
#X msg 968 141 36;
#X floatatom 912 232 5 0 0 0 - - -, f 5;
#X floatatom 1002 234 5 0 0 0 - - -, f 5;
#X floatatom 1094 236 5 0 0 0 - - -, f 5;
#X obj 912 190 expr if($f1 != $f2 \, $f1 \, 0) \; if($f1 != $f2 \,
$f2 +1 \, 0) \; if($f1 == $f2 \, $f1 \, 0);
#X obj 1079 306 spigot;
#X obj 1080 272 t f f;
#X floatatom 1079 326 5 0 0 0 - - -, f 5;
#X msg 884 57 36;
#N canvas -8 -8 1366 685 stateChanger 1;
#X obj 128 21 r onSignal;
#X obj 128 43 t f b;
#X msg 321 58 36;
#X obj 128 92 expr if($f1 != $f2 \, $f1 \, 0) \; if($f1 != $f2 \, $f2
+1 \, 0) \; if($f1 == $f2 \, $f1 \, 0);
#X obj 328 107 spigot;
#X obj 328 92 t b f;
#X obj 374 107 r pressedTheme;
#X obj 726 224 vsl 15 40 0 127 0 0 empty key36 empty 0 -9 0 10 -262144
-262144 -262144 0 1;
#X obj 328 122 f;
#X obj 353 122 pack 0 0 0;
#X obj 486 91 r offSignal;
#X obj 511 121 pack 0 0 0;
#X obj 486 121 f;
#X obj 510 106 r whiteTheme;
#X obj 128 171 expr if($f1 != $f2 \, $f1 \, 0) \; if($f1 != $f2 \,
$f2 +1 \, 0) \; if($f1 == $f2 \, $f1 \, 0);
#X obj 328 186 spigot;
#X obj 328 171 t b f;
#X obj 374 186 r pressedTheme;
#X obj 328 201 f;
#X obj 353 201 pack 0 0 0;
#X obj 486 170 r offSignal;
#X obj 511 200 pack 0 0 0;
#X obj 486 200 f;
#X obj 128 250 expr if($f1 != $f2 \, $f1 \, 0) \; if($f1 != $f2 \,
$f2 +1 \, 0) \; if($f1 == $f2 \, $f1 \, 0);
#X obj 328 265 spigot;
#X obj 328 250 t b f;
#X obj 374 265 r pressedTheme;
#X obj 328 280 f;
#X obj 353 280 pack 0 0 0;
#X obj 486 249 r offSignal;
#X obj 511 279 pack 0 0 0;
#X obj 486 279 f;
#X obj 510 264 r whiteTheme;
#X obj 128 329 expr if($f1 != $f2 \, $f1 \, 0) \; if($f1 != $f2 \,
$f2 +1 \, 0) \; if($f1 == $f2 \, $f1 \, 0);
#X obj 328 344 spigot;
#X obj 328 329 t b f;
#X obj 374 344 r pressedTheme;
#X obj 328 359 f;
#X obj 353 359 pack 0 0 0;
#X obj 486 328 r offSignal;
#X obj 511 358 pack 0 0 0;
#X obj 486 358 f;
#X floatatom 128 134 5 0 0 0 - - -, f 5;
#X floatatom 128 213 5 0 0 0 - - -, f 5;
#X floatatom 128 292 5 0 0 0 - - -, f 5;
#X floatatom 128 371 5 0 0 0 - - -, f 5;
#X msg 328 137 \; key36 color \$1 \$2 \$3;
#X msg 486 136 \; key36 color \$1 \$2 \$3;
#X msg 328 216 \; key37 color \$1 \$2 \$3;
#X msg 486 215 \; key37 color \$1 \$2 \$3;
#X msg 328 295 \; key38 color \$1 \$2 \$3;
#X msg 486 294 \; key38 color \$1 \$2 \$3;
#X msg 328 374 \; key39 color \$1 \$2 \$3;
#X msg 486 373 \; key39 color \$1 \$2 \$3;
#X obj 510 185 r blackTheme;
#X obj 510 343 r blackTheme;
#X obj 735 164 vsl 11 30 0 127 0 0 empty key37 empty 0 -9 0 10 -66577
-66577 -66577 0 1;
#X obj 741 224 vsl 15 40 0 127 0 0 empty key38 empty 0 -9 0 10 -262144
-262144 -262144 0 1;
#X obj 751 164 vsl 11 30 0 127 0 0 empty key39 empty 0 -9 0 10 -66577
-66577 -66577 0 1;
#X obj 756 224 vsl 15 40 0 127 0 0 empty key40 empty 0 -9 0 10 -66577
-66577 -66577 0 1;
#X obj 780 164 vsl 11 30 0 127 0 0 empty key41 empty 0 -9 0 10 -66577
-66577 -66577 0 1;
#X obj 771 224 vsl 15 40 0 127 0 0 empty key42 empty 0 -9 0 10 -262144
-262144 -262144 0 1;
#X obj 128 409 expr if($f1 != $f2 \, $f1 \, 0) \; if($f1 != $f2 \,
$f2 +1 \, 0) \; if($f1 == $f2 \, $f1 \, 0);
#X obj 328 424 spigot;
#X obj 328 409 t b f;
#X obj 374 424 r pressedTheme;
#X obj 328 439 f;
#X obj 353 439 pack 0 0 0;
#X obj 486 408 r offSignal;
#X obj 511 438 pack 0 0 0;
#X obj 486 438 f;
#X floatatom 128 451 5 0 0 0 - - -, f 5;
#X obj 510 423 r blackTheme;
#X msg 328 454 \; key40 color \$1 \$2 \$3;
#X msg 486 453 \; key40 color \$1 \$2 \$3;
#X connect 0 0 1 0;
#X connect 1 0 3 0;
#X connect 1 1 2 0;
#X connect 2 0 3 1;
#X connect 3 0 42 0;
#X connect 3 0 14 0;
#X connect 3 1 14 1;
#X connect 3 2 5 0;
#X connect 4 0 8 0;
#X connect 5 0 4 0;
#X connect 5 1 4 1;
#X connect 6 0 8 1;
#X connect 6 0 9 1;
#X connect 6 0 9 2;
#X connect 8 0 9 0;
#X connect 9 0 46 0;
#X connect 10 0 12 0;
#X connect 11 0 47 0;
#X connect 12 0 11 0;
#X connect 13 0 12 1;
#X connect 13 0 11 1;
#X connect 13 0 11 2;
#X connect 14 0 23 0;
#X connect 14 0 43 0;
#X connect 14 1 23 1;
#X connect 14 2 16 0;
#X connect 15 0 18 0;
#X connect 16 0 15 0;
#X connect 16 1 15 1;
#X connect 17 0 18 1;
#X connect 17 0 19 1;
#X connect 17 0 19 2;
#X connect 18 0 19 0;
#X connect 19 0 48 0;
#X connect 20 0 22 0;
#X connect 21 0 49 0;
#X connect 22 0 21 0;
#X connect 23 0 33 0;
#X connect 23 0 44 0;
#X connect 23 1 33 1;
#X connect 23 2 25 0;
#X connect 24 0 27 0;
#X connect 25 0 24 0;
#X connect 25 1 24 1;
#X connect 26 0 27 1;
#X connect 26 0 28 1;
#X connect 26 0 28 2;
#X connect 27 0 28 0;
#X connect 28 0 50 0;
#X connect 29 0 31 0;
#X connect 30 0 51 0;
#X connect 31 0 30 0;
#X connect 32 0 31 1;
#X connect 32 0 30 1;
#X connect 32 0 30 2;
#X connect 33 0 45 0;
#X connect 33 0 62 0;
#X connect 33 1 62 1;
#X connect 33 2 35 0;
#X connect 34 0 37 0;
#X connect 35 0 34 0;
#X connect 35 1 34 1;
#X connect 36 0 37 1;
#X connect 36 0 38 1;
#X connect 36 0 38 2;
#X connect 37 0 38 0;
#X connect 38 0 52 0;
#X connect 39 0 41 0;
#X connect 40 0 53 0;
#X connect 41 0 40 0;
#X connect 54 0 22 1;
#X connect 54 0 21 1;
#X connect 54 0 21 2;
#X connect 55 0 41 1;
#X connect 55 0 40 1;
#X connect 55 0 40 2;
#X connect 62 0 71 0;
#X connect 62 2 64 0;
#X connect 63 0 66 0;
#X connect 64 0 63 0;
#X connect 64 1 63 1;
#X connect 65 0 66 1;
#X connect 65 0 67 1;
#X connect 65 0 67 2;
#X connect 66 0 67 0;
#X connect 67 0 73 0;
#X connect 68 0 70 0;
#X connect 69 0 74 0;
#X connect 70 0 69 0;
#X connect 72 0 70 1;
#X connect 72 0 69 1;
#X connect 72 0 69 2;
#X restore 952 369 pd stateChanger;
#X msg 505 491 2;
#X msg 605 489 0;
#X msg 705 489 14;
#X obj 672 277 loadbang;
#X connect 2 0 5 1;
#X connect 3 0 4 0;
#X connect 3 1 2 0;
#X connect 3 2 1 0;
#X connect 4 0 5 0;
#X connect 5 0 6 0;
#X connect 6 0 13 0;
#X connect 8 0 12 0;
#X connect 10 0 11 0;
#X connect 10 1 8 1;
#X connect 11 0 8 0;
#X connect 13 0 9 0;
#X connect 13 0 10 0;
#X connect 13 1 14 0;
#X connect 13 1 16 0;
#X connect 15 0 17 0;
#X connect 16 0 15 0;
#X connect 16 1 15 1;
#X connect 18 0 21 0;
#X connect 19 0 20 0;
#X connect 29 0 43 0;
#X connect 29 0 44 0;
#X connect 29 0 45 0;
#X connect 32 0 37 0;
#X connect 32 1 33 0;
#X connect 33 0 37 1;
#X connect 37 0 34 0;
#X connect 37 1 35 0;
#X connect 37 2 36 0;
#X connect 37 2 39 0;
#X connect 38 0 40 0;
#X connect 39 0 38 0;
#X connect 39 1 38 1;
#X connect 41 0 32 0;
#X connect 43 0 25 0;
#X connect 44 0 26 0;
#X connect 45 0 27 0;
#X connect 46 0 12 0;
#X coords 0 -1 1 1 200 200 1 10 10;
#X restore 168 129 pd MIDI_controller;
#X restore 399 226 pd control;
#X connect 0 0 12 0;
#X connect 0 0 12 1;
#X connect 1 0 3 0;
#X connect 1 0 8 0;
#X connect 2 0 0 0;
#X connect 5 0 6 0;
#X connect 5 1 6 1;
#X connect 8 0 9 0;
#X connect 9 0 0 1;
#X connect 10 0 11 0;
#X connect 11 0 1 0;
#X connect 12 0 4 0;
#X connect 12 1 4 1;
#X coords 0 685 1 684 85 60 0;
